<?xml version="1.0" encoding="UTF-8"?>
<svg version="1.1" xmlns="http://www.w3.org/2000/svg" width="320" height="320">
<path d="M0 0 C105.6 0 211.2 0 320 0 C320 105.6 320 211.2 320 320 C214.4 320 108.8 320 0 320 C0 214.4 0 108.8 0 0 Z " fill="#FDFDFD" transform="translate(0,0)"/>
<path d="M0 0 C3.97878337 1.00687579 7.75768756 1.58494532 11.828125 2.09375 C12.50746094 2.18011719 13.18679688 2.26648437 13.88671875 2.35546875 C15.53331524 2.56419225 17.18064662 2.76710551 18.828125 2.96875 C18.828125 3.62875 18.828125 4.28875 18.828125 4.96875 C17.43912923 5.87159725 16.04996945 6.77419283 14.66015625 7.67578125 C5.83856152 13.90168286 0.95407573 22.7409963 -4.171875 31.96875 C-4.64496094 32.78988281 -5.11804688 33.61101562 -5.60546875 34.45703125 C-19.95148103 60.93835884 -23.17709033 93.31911337 -27.27661133 122.72512817 C-28.98178514 134.84685158 -31.08326617 146.90828412 -33.171875 158.96875 C-33.38408691 160.20794189 -33.38408691 160.20794189 -33.60058594 161.47216797 C-37.40516177 183.53376679 -42.16024313 206.06342386 -52.2734375 226.16015625 C-53.16582325 227.95656757 -54.01284573 229.77527972 -54.859375 231.59375 C-65.061054 253.13062789 -65.061054 253.13062789 -74.171875 256.96875 C-77.38916352 257.39886674 -80.55525608 257.38678034 -83.796875 257.34375 C-85.02664062 257.36115234 -85.02664062 257.36115234 -86.28125 257.37890625 C-93.16589367 257.34807949 -99.78235878 256.31821754 -106.5528717 255.19381714 C-115.03126492 253.79343899 -123.53943181 252.76535727 -132.07437134 251.77786255 C-134.80382175 251.46067976 -137.53220316 251.13531348 -140.26049805 250.80834961 C-148.33372837 249.84616772 -156.40212552 248.92093548 -164.5 248.19140625 C-165.70068115 248.07667969 -166.9013623 247.96195313 -168.13842773 247.84375 C-170.29735242 247.64211384 -172.45845895 247.46211119 -174.62133789 247.30859375 C-182.210345 246.58081843 -182.210345 246.58081843 -185.18359375 243.1953125 C-194.79239523 227.60224762 -197.38420255 208.68344995 -200.359375 190.90625 C-200.48593475 190.154646 -200.61249451 189.40304199 -200.7428894 188.62866211 C-202.15670349 180.16215695 -203.38633241 171.69056605 -204.34765625 163.16015625 C-204.43226608 162.4128978 -204.51687592 161.66563934 -204.60404968 160.89573669 C-204.99735337 157.23760132 -205.26722263 153.64844567 -205.171875 149.96875 C-203.8715332 149.95416748 -202.57119141 149.93958496 -201.23144531 149.92456055 C-196.35569274 149.86610095 -191.48037925 149.78887519 -186.60498047 149.70629883 C-184.50446762 149.6732719 -182.40387077 149.64517261 -180.30322266 149.62231445 C-160.9479544 149.71080715 -160.9479544 149.71080715 -143.171875 142.96875 C-142.511875 142.96875 -141.851875 142.96875 -141.171875 142.96875 C-140.883125 142.246875 -140.594375 141.525 -140.296875 140.78125 C-139.25520833 138.17708333 -138.21354167 135.57291667 -137.171875 132.96875 C-143.441875 132.96875 -149.711875 132.96875 -156.171875 132.96875 C-156.831875 134.28875 -157.491875 135.60875 -158.171875 136.96875 C-164.52754653 140.1680378 -170.17654909 140.38502461 -177.19921875 140.296875 C-178.22874161 140.29500183 -179.25826447 140.29312866 -180.31898499 140.29119873 C-182.47969841 140.28451083 -184.64040041 140.27066193 -186.80102539 140.25 C-190.12332288 140.21861825 -193.44514655 140.20900238 -196.76757812 140.203125 C-198.86979751 140.19396339 -200.97201204 140.18359032 -203.07421875 140.171875 C-204.07202866 140.16762512 -205.06983856 140.16337524 -206.09788513 140.15899658 C-207.01296341 140.14938904 -207.92804169 140.13978149 -208.87084961 140.12988281 C-210.08374916 140.11964081 -210.08374916 140.11964081 -211.32115173 140.10919189 C-213.171875 139.96875 -213.171875 139.96875 -214.171875 138.96875 C-214.2602717 136.5930648 -214.28717805 134.24666326 -214.26953125 131.87109375 C-214.2681163 131.16223526 -214.26670135 130.45337677 -214.26524353 129.72303772 C-214.25962943 127.45073288 -214.24707463 125.17852525 -214.234375 122.90625 C-214.22936181 121.36914204 -214.22479859 119.83203255 -214.22070312 118.29492188 C-214.20965542 114.51949358 -214.19238141 110.74413829 -214.171875 106.96875 C-207.19771856 106.86696951 -200.22375511 106.79712504 -193.24902344 106.74902344 C-190.87850791 106.72896174 -188.50804155 106.70170574 -186.13769531 106.66699219 C-182.72188149 106.61823582 -179.30672445 106.59572601 -175.890625 106.578125 C-174.83822632 106.55747986 -173.78582764 106.53683472 -172.70153809 106.51556396 C-166.05808305 106.51355769 -161.87549089 107.52032952 -156.171875 110.96875 C-156.171875 111.62875 -156.171875 112.28875 -156.171875 112.96875 C-149.901875 112.96875 -143.631875 112.96875 -137.171875 112.96875 C-141.4099145 104.492671 -143.16215741 102.04760332 -151.65679932 99.10917664 C-160.37159685 96.71837148 -168.71051178 96.57956094 -177.65625 96.67578125 C-179.20851222 96.68139107 -180.76077984 96.68565459 -182.31304932 96.68864441 C-186.35725107 96.69998435 -190.40111877 96.72935499 -194.44519043 96.76275635 C-199.31955057 96.79915368 -204.19402371 96.81267019 -209.06848145 96.83011627 C-216.43651013 96.85900139 -223.80380891 96.91656275 -231.171875 96.96875 C-231.171875 114.12875 -231.171875 131.28875 -231.171875 148.96875 C-219.786875 149.46375 -219.786875 149.46375 -208.171875 149.96875 C-208.79667255 161.30436271 -209.58935517 172.60007964 -210.609375 183.90625 C-210.67468414 184.63978699 -210.73999329 185.37332397 -210.80728149 186.12908936 C-211.78364396 197.09232601 -212.84875384 208.04132581 -214.171875 218.96875 C-218.2842233 218.43443096 -220.29843637 216.27064725 -223.234375 213.46875 C-227.74763622 209.23477662 -232.40572983 205.27208547 -237.22265625 201.3828125 C-240.585561 198.6301302 -243.88113959 195.80689781 -247.171875 192.96875 C-251.31870684 189.39549969 -255.48796082 185.86148366 -259.734375 182.40625 C-260.59804688 181.68953125 -261.46171875 180.9728125 -262.3515625 180.234375 C-264.45217041 178.54690604 -266.55733845 176.96036753 -268.7421875 175.390625 C-269.94811693 174.47943164 -271.15384908 173.56797714 -272.359375 172.65625 C-273.22574585 172.07218384 -273.22574585 172.07218384 -274.10961914 171.47631836 C-275.93122806 170.0625282 -276.97827788 168.95241093 -278.171875 166.96875 C-278.43887329 164.42869568 -278.43887329 164.42869568 -278.37353516 161.48217773 C-278.33975014 159.87567101 -278.33975014 159.87567101 -278.30528259 158.23670959 C-278.10422988 153.31171157 -277.79570916 148.405412 -277.40234375 143.4921875 C-277.32067459 142.44205475 -277.23900543 141.391922 -277.15486145 140.30996704 C-276.98157011 138.10309936 -276.80581556 135.8964238 -276.62768555 133.68994141 C-276.3617499 130.3733682 -276.10916371 127.05595815 -275.85742188 123.73828125 C-271.93397976 73.59437145 -271.93397976 73.59437145 -255.1015625 57.47265625 C-248.1742606 52.07384809 -240.58880636 50.79790779 -232.046875 50.84375 C-231.31855469 50.83988281 -230.59023437 50.83601563 -229.83984375 50.83203125 C-224.42529569 50.84203966 -224.42529569 50.84203966 -222.171875 51.96875 C-219.46613189 52.36100938 -216.76985779 52.70667276 -214.0546875 53.01953125 C-212.80591827 53.16760979 -212.80591827 53.16760979 -211.53192139 53.31867981 C-209.72947496 53.53169299 -207.92681169 53.74287741 -206.1239624 53.95245361 C-203.28545384 54.28257831 -200.44762703 54.61812799 -197.60986328 54.95458984 C-188.29762354 56.05330949 -178.98241728 57.10838832 -169.65625 58.08203125 C-168.01675842 58.25539665 -166.37727261 58.42881661 -164.73779297 58.60229492 C-161.67540368 58.92585668 -158.61201772 59.23512141 -155.54736328 59.53637695 C-142.31391856 60.89006981 -142.31391856 60.89006981 -136.171875 63.96875 C-133.97392056 67.26568166 -133.92298896 68.23984857 -133.92895508 72.06689453 C-133.92587845 73.10451935 -133.92280182 74.14214417 -133.91963196 75.21121216 C-133.93041023 76.88943558 -133.93041023 76.88943558 -133.94140625 78.6015625 C-133.94186447 79.74914032 -133.94232269 80.89671814 -133.9427948 82.07907104 C-133.94581692 84.50503575 -133.95370198 86.93099851 -133.96606445 89.35693359 C-133.98433546 93.08568127 -133.98657405 96.81418096 -133.98632812 100.54296875 C-133.99124265 102.8958355 -133.99707068 105.24870055 -134.00390625 107.6015625 C-134.00501907 108.72442657 -134.0061319 109.84729065 -134.00727844 111.00418091 C-134.01365829 112.0355014 -134.02003815 113.0668219 -134.02661133 114.12939453 C-134.03042313 115.04189972 -134.03423492 115.95440491 -134.03816223 116.89456177 C-134.171875 118.96875 -134.171875 118.96875 -135.171875 119.96875 C-135.53948231 122.29692964 -135.87429081 124.6305885 -136.171875 126.96875 C-135.181875 126.96875 -134.191875 126.96875 -133.171875 126.96875 C-132.841875 130.92875 -132.511875 134.88875 -132.171875 138.96875 C-131.511875 133.02875 -130.851875 127.08875 -130.171875 120.96875 C-129.511875 120.96875 -128.851875 120.96875 -128.171875 120.96875 C-128.171875 122.94875 -128.171875 124.92875 -128.171875 126.96875 C-127.511875 126.96875 -126.851875 126.96875 -126.171875 126.96875 C-126.501875 124.65875 -126.831875 122.34875 -127.171875 119.96875 C-128.161875 119.63875 -129.151875 119.30875 -130.171875 118.96875 C-129.70526599 83.67614095 -124.00983395 44.10085995 -98.828125 17.4921875 C-72.35435575 -7.52036722 -33.86433046 -8.81163701 0 0 Z " fill="#36700E" transform="translate(292.171875,33.03125)"/>
<path d="M0 0 C3.97878337 1.00687579 7.75768756 1.58494532 11.828125 2.09375 C12.50746094 2.18011719 13.18679688 2.26648437 13.88671875 2.35546875 C15.53331524 2.56419225 17.18064662 2.76710551 18.828125 2.96875 C18.828125 3.62875 18.828125 4.28875 18.828125 4.96875 C17.43912923 5.87159725 16.04996945 6.77419283 14.66015625 7.67578125 C5.83856152 13.90168286 0.95407573 22.7409963 -4.171875 31.96875 C-4.64496094 32.78988281 -5.11804688 33.61101562 -5.60546875 34.45703125 C-19.95148103 60.93835884 -23.17709033 93.31911337 -27.27661133 122.72512817 C-29.73642688 140.21144164 -32.76761307 157.64299414 -36.171875 174.96875 C-36.501875 174.96875 -36.831875 174.96875 -37.171875 174.96875 C-37.5846139 168.227348 -36.28554441 162.09958024 -34.828125 155.5546875 C-34.22460306 152.25687121 -34.04852758 149.30940924 -34.171875 145.96875 C-34.82612961 146.61938416 -35.48038422 147.27001831 -36.15446472 147.94036865 C-39.96788498 150.50384853 -43.01742776 150.50591709 -47.45043945 150.42285156 C-48.68048454 150.42372772 -48.68048454 150.42372772 -49.93537903 150.42462158 C-52.635741 150.42184317 -55.33498802 150.39076345 -58.03515625 150.359375 C-59.9113047 150.35191173 -61.78746096 150.3462192 -63.66362 150.34222412 C-68.59410239 150.32697458 -73.52411109 150.28769857 -78.45440674 150.2434082 C-83.48841952 150.20244087 -88.52250908 150.18420998 -93.55664062 150.1640625 C-103.42859317 150.1212037 -113.30019465 150.05296054 -123.171875 149.96875 C-123.171875 146.66875 -123.171875 143.36875 -123.171875 139.96875 C-121.90067307 139.9532888 -121.90067307 139.9532888 -120.60379028 139.93751526 C-112.6281932 139.8396521 -104.6526722 139.73715373 -96.67720222 139.62941074 C-92.5766585 139.57417983 -88.47610765 139.52075956 -84.37548828 139.47143555 C-80.42026328 139.42379447 -76.4651262 139.37145176 -72.51000595 139.31580925 C-70.99891211 139.29538453 -69.48779416 139.27667164 -67.97665787 139.25967598 C-65.86472076 139.23563449 -63.75295032 139.20557978 -61.64111328 139.17407227 C-60.43754181 139.15852798 -59.23397034 139.1429837 -57.993927 139.12696838 C-55.22112867 139.15856223 -55.22112867 139.15856223 -53.171875 137.96875 C-53.15125 136.669375 -53.130625 135.37 -53.109375 134.03125 C-53.09777344 133.30035156 -53.08617187 132.56945312 -53.07421875 131.81640625 C-52.96626316 129.95142859 -52.96626316 129.95142859 -54.171875 128.96875 C-57.00586985 128.59400688 -59.82939321 128.26264149 -62.671875 127.96875 C-71.03673986 127.10388514 -71.03673986 127.10388514 -72.171875 125.96875 C-72.21251332 124.30257885 -72.214596 122.63486905 -72.171875 120.96875 C-74.151875 120.96875 -76.131875 120.96875 -78.171875 120.96875 C-78.171875 122.94875 -78.171875 124.92875 -78.171875 126.96875 C-81.71375778 128.06703769 -84.9928512 128.08320011 -88.6875 128.06640625 C-89.93789062 128.06318359 -91.18828125 128.05996094 -92.4765625 128.05664062 C-94.42949219 128.04407227 -94.42949219 128.04407227 -96.421875 128.03125 C-98.39800781 128.02448242 -98.39800781 128.02448242 -100.4140625 128.01757812 C-103.66671241 128.00579316 -106.91927084 127.98934011 -110.171875 127.96875 C-110.171875 127.30875 -110.171875 126.64875 -110.171875 125.96875 C-110.71457031 126.29488281 -111.25726563 126.62101563 -111.81640625 126.95703125 C-114.65570786 128.17656544 -116.77983109 128.20147695 -119.859375 128.15625 C-120.83261719 128.14980469 -121.80585938 128.14335937 -122.80859375 128.13671875 C-125.171875 127.96875 -125.171875 127.96875 -126.171875 126.96875 C-126.53948231 124.64057036 -126.87429081 122.3069115 -127.171875 119.96875 C-128.161875 119.63875 -129.151875 119.30875 -130.171875 118.96875 C-129.70526599 83.67614095 -124.00983395 44.10085995 -98.828125 17.4921875 C-72.35435575 -7.52036722 -33.86433046 -8.81163701 0 0 Z " fill="#9A7F03" transform="translate(292.171875,33.03125)"/>
<path d="M0 0 C77.55 0 155.1 0 235 0 C235 51.81 235 103.62 235 157 C228.45018793 157 222.7578672 156.87770348 216.4296875 155.79296875 C215.66375275 155.6669075 214.89781799 155.54084625 214.1086731 155.41096497 C212.50651627 155.1450622 210.90502041 154.8751473 209.30419922 154.60131836 C206.87522979 154.18753915 204.44384696 153.79122128 202.01171875 153.39648438 C200.44253393 153.13385239 198.87351706 152.87021456 197.3046875 152.60546875 C196.58989227 152.48970993 195.87509705 152.37395111 195.13864136 152.25468445 C190.14690651 151.38460408 185.70273848 149.89092437 181 148 C180.86072781 142.40446609 181.28923951 137.34878609 182.390625 131.87109375 C182.53651062 131.11893082 182.68239624 130.36676788 182.83270264 129.59181213 C183.14185882 128.00703312 183.45467848 126.42296477 183.77099609 124.83959961 C184.24358046 122.46969259 184.7027977 120.09749604 185.16015625 117.72460938 C190.59859467 89.8654441 198.83692957 57.72149198 222 39 C224.23828125 38.28125 224.23828125 38.28125 226 38 C226 37.34 226 36.68 226 36 C225.1028125 35.96261719 224.205625 35.92523438 223.28125 35.88671875 C216.42386483 35.5254309 209.79972979 34.90961293 203.0625 33.5625 C180.55855554 29.14922045 155.70458429 25.98829485 134 35 C132.39898437 35.65162109 132.39898437 35.65162109 130.765625 36.31640625 C119.8849897 41.26343085 106.48280477 50.03439047 101 61 C91.94478185 60.52340957 84.81249799 53.91547967 78.01782227 48.52441406 C71.70474954 43.6169271 65.03199437 39.23327051 58.375 34.8125 C57.79831573 34.42904419 57.22163147 34.04558838 56.62747192 33.6505127 C41.79506354 23.75144481 41.79506354 23.75144481 26.37890625 14.8125 C21.73592097 12.32192755 17.11821544 9.7861354 12.5 7.25 C11.61449463 6.76563477 10.72898926 6.28126953 9.81665039 5.78222656 C8.97996826 5.32299805 8.14328613 4.86376953 7.28125 4.390625 C6.52908203 3.97844727 5.77691406 3.56626953 5.00195312 3.14160156 C3.29159484 2.16628018 1.63822595 1.09215063 0 0 Z " fill="#FDFDFC" transform="translate(85,0)"/>
<path d="M0 0 C9.24141287 -0.18676793 18.4821595 -0.32820792 27.72505951 -0.41449738 C32.01872725 -0.45594872 36.31108812 -0.51200817 40.60400391 -0.60351562 C44.76035561 -0.69154028 48.91546456 -0.73849894 53.07267761 -0.75901794 C54.64498933 -0.7736067 56.21724621 -0.80208627 57.78901672 -0.84584045 C70.11718758 -1.17483827 78.44295382 1.77136654 89 8 C90.20380525 8.67426311 91.40968146 9.34484478 92.61779785 10.01135254 C95.44277447 11.57946283 98.23713857 13.19102847 101.02001953 14.83251953 C102.42775526 15.66258023 103.83783934 16.48866384 105.24951172 17.31201172 C121.71428276 26.92454722 137.38055878 37.40660108 152.55102539 48.95068359 C158.97861809 53.80978921 165.44219069 58.11453165 173 61 C172.63648438 61.62003906 172.27296875 62.24007812 171.8984375 62.87890625 C162.54169569 79.36116682 157.11948325 96.85968587 154.375 115.5625 C154.16146856 116.96943967 153.94768022 118.37634037 153.73364258 119.78320312 C152.12726755 130.48820296 150.86892391 141.20978069 150 152 C151.32 152.33 152.64 152.66 154 153 C154 155.31 154 157.62 154 160 C153.34 160 152.68 160 152 160 C152 158.02 152 156.04 152 154 C151.34 154 150.68 154 150 154 C150.01160156 154.61101562 150.02320313 155.22203125 150.03515625 155.8515625 C150.14095764 166.58284637 149.53773587 177.28532669 149 188 C148.67 188 148.34 188 148 188 C147.33566818 178.65190221 146.8401345 169.37877608 147 160 C146.01 160 145.02 160 144 160 C143.95758277 157.66705225 143.95907063 155.33297433 144 153 C144.33 152.67 144.66 152.34 145 152 C145.10382119 150.38949789 145.13852223 148.77447551 145.14526367 147.16064453 C145.15164352 146.12932404 145.15802338 145.09800354 145.16459656 144.03543091 C145.16570938 142.91256683 145.1668222 141.78970276 145.16796875 140.6328125 C145.17129715 139.48714813 145.17462555 138.34148376 145.17805481 137.16110229 C145.18312942 134.73159183 145.18546297 132.30207436 145.18530273 129.87255859 C145.18748652 126.14799535 145.20562941 122.42372941 145.22460938 118.69921875 C145.22754367 116.34375102 145.22952822 113.98828187 145.23046875 111.6328125 C145.24124702 109.95458908 145.24124702 109.95458908 145.25224304 108.24246216 C145.24916641 107.20483734 145.24608978 106.16721252 145.24291992 105.09814453 C145.24434494 104.18404816 145.24576996 103.26995178 145.24723816 102.32815552 C145.15298995 99.72710728 145.15298995 99.72710728 143 97 C138.35087103 95.34685748 133.81083714 94.61449466 128.91796875 94.10546875 C128.24202164 94.0330043 127.56607452 93.96053986 126.86964417 93.88587952 C125.40690165 93.72954981 123.9438705 93.57590179 122.48059082 93.42468262 C118.50520823 93.01349452 114.53203795 92.58179352 110.55859375 92.15234375 C109.29911423 92.01694687 109.29911423 92.01694687 108.01419067 91.8788147 C97.58323751 90.75083688 87.1669631 89.49952597 76.75 88.25 C74.87003716 88.02497241 72.990073 87.79995587 71.11010742 87.57495117 C66.73989332 87.05144313 62.36988387 86.5262572 58 86 C57.67 85.01 57.34 84.02 57 83 C55.07278 81.39398334 53.15076109 79.90825019 51.125 78.4375 C45.61560439 74.32618104 40.52673234 69.98271266 35.484375 65.3046875 C33.33278418 63.30871488 31.15359472 61.36107022 28.9375 59.4375 C27.98810547 58.60412109 27.98810547 58.60412109 27.01953125 57.75390625 C25.57168111 56.49648901 24.10889785 55.25618746 22.63671875 54.02734375 C11.3257816 44.33476775 -1.0011295 30.23616366 -2.265625 14.74609375 C-2.26046875 13.65425781 -2.2553125 12.56242188 -2.25 11.4375 C-2.25515625 10.34308594 -2.2603125 9.24867187 -2.265625 8.12109375 C-1.99985533 4.99830017 -1.2188704 2.85684099 0 0 Z " fill="#D1D3D4" transform="translate(12,0)"/>
<path d="M0 0 C0.72832031 -0.00386719 1.45664062 -0.00773437 2.20703125 -0.01171875 C7.62157931 -0.00171034 7.62157931 -0.00171034 9.875 1.125 C12.81478564 1.54022926 15.74631542 1.90956236 18.6953125 2.24609375 C19.58676971 2.35091568 20.47822693 2.45573761 21.396698 2.56373596 C24.26406544 2.90018711 27.13199836 3.23150266 30 3.5625 C31.87894799 3.78154331 33.75785476 4.00094051 35.63671875 4.22070312 C37.01763702 4.38211288 37.01763702 4.38211288 38.42645264 4.54678345 C41.17278009 4.86845458 43.91891247 5.19175593 46.66503906 5.51513672 C49.99920813 5.90774916 53.33433492 6.28897824 56.67089844 6.66064453 C58.11135614 6.82690589 59.5517876 6.99339485 60.9921875 7.16015625 C62.23339355 7.29945557 63.47459961 7.43875488 64.75341797 7.58227539 C67.58865858 8.0752161 69.39094164 8.76235018 71.875 10.125 C73.93001254 10.36708983 75.99563582 10.52622513 78.0625 10.625 C83.56366869 10.98431057 88.58099873 11.56283569 93.875 13.125 C97.45829827 18.4999474 97.01998041 24.74006414 96.97265625 31.02734375 C96.97053383 32.11119102 96.97053383 32.11119102 96.96836853 33.2169342 C96.96282225 35.49883365 96.9502802 37.78063079 96.9375 40.0625 C96.93247804 41.62044128 96.92791636 43.17838412 96.92382812 44.73632812 C96.9128705 48.53259081 96.89564372 52.32877813 96.875 56.125 C95.885 55.795 94.895 55.465 93.875 55.125 C93.875 54.135 93.875 53.145 93.875 52.125 C92.555 51.465 91.235 50.805 89.875 50.125 C89.875 49.465 89.875 48.805 89.875 48.125 C88.44607422 48.03412109 88.44607422 48.03412109 86.98828125 47.94140625 C85.73402344 47.85761719 84.47976562 47.77382812 83.1875 47.6875 C81.94613281 47.60628906 80.70476562 47.52507812 79.42578125 47.44140625 C75.875 47.125 75.875 47.125 73.59016418 46.61231995 C70.31015706 46.02362152 67.21482038 46.00546879 63.8815918 46.01147461 C63.19811172 46.01132858 62.51463165 46.01118256 61.81044006 46.0110321 C59.56499999 46.01172538 57.31964423 46.01949026 55.07421875 46.02734375 C53.51194809 46.02921001 51.94967685 46.03063293 50.3874054 46.03163147 C46.28569916 46.03544028 42.18402861 46.04525654 38.08233643 46.05633545 C33.15552254 46.06838845 28.22869668 46.0729596 23.30187225 46.07878876 C15.82622338 46.08846921 8.35065275 46.10763719 0.875 46.125 C0.875 63.285 0.875 80.445 0.875 98.125 C8.465 98.455 16.055 98.785 23.875 99.125 C23.25020245 110.46061271 22.45751983 121.75632964 21.4375 133.0625 C21.37219086 133.79603699 21.30688171 134.52957397 21.23959351 135.28533936 C20.26323104 146.24857601 19.19812116 157.19757581 17.875 168.125 C13.7626517 167.59068096 11.74843863 165.42689725 8.8125 162.625 C4.29923878 158.39102662 -0.35885483 154.42833547 -5.17578125 150.5390625 C-8.538686 147.7863802 -11.83426459 144.96314781 -15.125 142.125 C-19.27183184 138.55174969 -23.44108582 135.01773366 -27.6875 131.5625 C-28.55117188 130.84578125 -29.41484375 130.1290625 -30.3046875 129.390625 C-32.40529541 127.70315604 -34.51046345 126.11661753 -36.6953125 124.546875 C-37.90124193 123.63568164 -39.10697408 122.72422714 -40.3125 121.8125 C-41.17887085 121.22843384 -41.17887085 121.22843384 -42.06274414 120.63256836 C-43.88435306 119.2187782 -44.93140288 118.10866093 -46.125 116.125 C-46.39199829 113.58494568 -46.39199829 113.58494568 -46.32666016 110.63842773 C-46.29287514 109.03192101 -46.29287514 109.03192101 -46.25840759 107.39295959 C-46.05735488 102.46796157 -45.74883416 97.561662 -45.35546875 92.6484375 C-45.27379959 91.59830475 -45.19213043 90.548172 -45.10798645 89.46621704 C-44.93469511 87.25934936 -44.75894056 85.0526738 -44.58081055 82.84619141 C-44.3148749 79.5296182 -44.06228871 76.21220815 -43.81054688 72.89453125 C-39.88710476 22.75062145 -39.88710476 22.75062145 -23.0546875 6.62890625 C-16.1273856 1.23009809 -8.54193136 -0.04584221 0 0 Z " fill="#1B6C11" transform="translate(60.125,83.875)"/>
<path d="M0 0 C3.96 0 7.92 0 12 0 C11.67 1.65 11.34 3.3 11 5 C9.60781235 19.63785869 14.53632534 29.9488021 23.5 41.02734375 C24.325 42.00832031 25.15 42.98929688 26 44 C26.42917725 44.52779053 26.85835449 45.05558105 27.30053711 45.59936523 C29.5612334 48.3703342 31.8170618 50.89656388 34.5625 53.1875 C37.48877447 55.67620071 40.33125911 58.22871075 43.13378906 60.85620117 C52.18439546 69.31558426 61.89115133 76.85077622 72 84 C68.74322056 84.91921986 65.90540675 85.00972397 62.51757812 84.88305664 C52.6664174 84.54890342 44.58320873 85.79361157 36.6875 92.1875 C19.0759541 109.25991694 18.80527802 137.12212045 17.06469727 160.06103516 C16.81122301 163.39178011 16.54418544 166.72124111 16.27539062 170.05078125 C16.10597662 172.20827112 15.93732974 174.36582139 15.76953125 176.5234375 C15.6914473 177.49872406 15.61336334 178.47401062 15.53291321 179.47885132 C13.99897096 191.0276389 13.99897096 191.0276389 16 202 C11 200.33333333 6 198.66666667 1 197 C1 198.65 1 200.3 1 202 C0.67 202 0.34 202 0 202 C0 135.34 0 68.68 0 0 Z " fill="#FCFDFC" transform="translate(0,0)"/>
<path d="M0 0 C0.66362045 -0.0049649 1.32724091 -0.00992981 2.01097107 -0.01504517 C4.22045924 -0.0297197 6.42987526 -0.03648276 8.6394043 -0.04199219 C10.17864483 -0.04774589 11.71788535 -0.0535036 13.25712585 -0.05926514 C16.49629043 -0.06979459 19.73543008 -0.07562234 22.97460938 -0.07910156 C27.09547319 -0.08454511 31.21599965 -0.10847462 35.33675861 -0.13707352 C38.52411294 -0.15585537 41.71138922 -0.160914 44.89879417 -0.16243744 C46.41561892 -0.16543719 47.93244318 -0.17337351 49.44921303 -0.18662262 C61.38307122 -0.28329461 74.12546385 -0.01353145 83.65112305 8.16113281 C86.18684076 11.02101899 87.65112305 13.22188438 87.65112305 17.16113281 C81.38112305 17.16113281 75.11112305 17.16113281 68.65112305 17.16113281 C68.65112305 16.50113281 68.65112305 15.84113281 68.65112305 15.16113281 C64.20126252 13.3571353 60.54341571 12.04084578 55.72070312 11.95581055 C54.21948662 11.92589272 54.21948662 11.92589272 52.6879425 11.89537048 C51.6097374 11.87865799 50.53153229 11.8619455 49.4206543 11.84472656 C47.76231819 11.81355492 47.76231819 11.81355492 46.07048035 11.78175354 C42.53492514 11.71630949 38.99929498 11.65739678 35.46362305 11.59863281 C33.06843297 11.55544272 30.6732505 11.51182827 28.27807617 11.46777344 C22.40250088 11.35983393 16.52686961 11.26072174 10.65112305 11.16113281 C10.98112305 21.72113281 11.31112305 32.28113281 11.65112305 43.16113281 C18.18056645 43.25327706 24.70772764 43.33282305 31.23730469 43.38085938 C33.45548168 43.40089682 35.67360637 43.42813455 37.89160156 43.46289062 C41.09152176 43.51175534 44.29073979 43.53418094 47.4909668 43.55175781 C48.96339088 43.58272552 48.96339088 43.58272552 50.46556091 43.61431885 C56.88059961 43.61638005 62.15153044 42.63219579 67.65112305 39.16113281 C67.98112305 38.50113281 68.31112305 37.84113281 68.65112305 37.16113281 C74.92112305 37.16113281 81.19112305 37.16113281 87.65112305 37.16113281 C85.9950279 45.44160853 85.9950279 45.44160853 81.8034668 48.51660156 C73.0491575 53.7815389 63.86646529 54.46751313 53.83081055 54.35644531 C52.846138 54.35361542 51.86146545 54.35078552 50.84695435 54.34786987 C47.73988044 54.33678476 44.63310801 54.31170272 41.52612305 54.28613281 C39.40373141 54.27608791 37.2813352 54.26696472 35.15893555 54.25878906 C29.98955073 54.2368838 24.82038778 54.2024361 19.65112305 54.16113281 C20.7117805 61.94306881 21.78210694 69.72357918 22.86712646 77.50215149 C23.38323718 81.2083623 23.88523718 84.9160432 24.3737793 88.62597656 C26.10447822 101.37502807 28.96353958 113.80045084 31.97192383 126.30322266 C32.90909207 130.24660562 33.78460353 134.20167762 34.65112305 138.16113281 C3.08110141 133.90667354 -39.91983065 108.31598392 -59.14257812 83.45361328 C-66.34887695 73.86563342 -66.34887695 73.86563342 -66.34887695 68.16113281 C-53.06652787 70.11155118 -44.81622614 76.63861141 -35.24243164 85.43701172 C-32.25083305 88.16092472 -29.17707227 90.7859997 -26.09887695 93.41113281 C-25.5169458 93.91016113 -24.93501465 94.40918945 -24.33544922 94.92333984 C-20.04361325 98.59615517 -15.67692636 102.16937853 -11.28637695 105.72363281 C-8.98554809 107.63283123 -6.72287659 109.56716426 -4.47387695 111.53613281 C-3.80155029 112.12467041 -3.12922363 112.71320801 -2.43652344 113.31958008 C-1.1123173 114.48287002 0.20863123 115.64988142 1.52587891 116.82104492 C2.13310791 117.35479736 2.74033691 117.8885498 3.3659668 118.43847656 C3.90342529 118.91534912 4.44088379 119.39222168 4.99462891 119.88354492 C6.78596798 121.26513333 8.60185306 122.21357892 10.65112305 123.16113281 C10.72459961 121.60688599 10.72459961 121.60688599 10.79956055 120.02124023 C11.37787859 108.44858967 12.30907045 96.92555686 13.38061523 85.38891602 C13.6543384 82.43898075 13.9225998 79.48858367 14.19018555 76.53808594 C14.36434944 74.63766639 14.53881725 72.73727467 14.71362305 70.83691406 C14.83241821 69.5321386 14.83241821 69.5321386 14.95361328 68.20100403 C15.39295529 63.49579746 15.93885675 58.83301666 16.65112305 54.16113281 C15.61387085 54.16898804 15.61387085 54.16898804 14.55566406 54.17700195 C11.44165953 54.19770782 8.32766943 54.21077244 5.21362305 54.22363281 C4.12500977 54.23201172 3.03639648 54.24039063 1.91479492 54.24902344 C0.88032227 54.25224609 -0.15415039 54.25546875 -1.2199707 54.25878906 C-2.17830811 54.26402588 -3.13664551 54.2692627 -4.12402344 54.2746582 C-6.34887695 54.16113281 -6.34887695 54.16113281 -7.34887695 53.16113281 C-7.44749293 51.53985858 -7.47686462 49.91430914 -7.47827148 48.29003906 C-7.48142365 47.25226318 -7.48457581 46.2144873 -7.48782349 45.14526367 C-7.48579926 44.01612549 -7.48377502 42.8869873 -7.48168945 41.72363281 C-7.48264618 40.5732251 -7.48360291 39.42281738 -7.48458862 38.23754883 C-7.48527064 35.79964137 -7.48341486 33.36173212 -7.47924805 30.92382812 C-7.47390013 27.17736764 -7.47919235 23.43102704 -7.4855957 19.68457031 C-7.48493493 17.32259088 -7.48365377 14.96061152 -7.48168945 12.59863281 C-7.48371368 11.46949463 -7.48573792 10.34035645 -7.48782349 9.17700195 C-7.48309525 7.62033813 -7.48309525 7.62033813 -7.47827148 6.03222656 C-7.47747589 5.11368896 -7.4766803 4.19515137 -7.4758606 3.2487793 C-7.20398183 -1.22098346 -3.74195215 0.02120113 0 0 Z " fill="#F8FBF6" transform="translate(67.348876953125,128.8388671875)"/>
<path d="M0 0 C0.33 0 0.66 0 1 0 C1.05994141 0.804375 1.05994141 0.804375 1.12109375 1.625 C2.15514781 9.38678853 5.67898532 15.16456416 9.56640625 21.7890625 C13.02945795 27.6995922 15.99111784 33.84736544 19.00292969 39.99560547 C20.01117492 42.02246477 21.05114749 44.0298626 22.1015625 46.03515625 C30.43809813 62.05517951 38.04984793 80.04810186 32.375 98.25 C27.14670646 112.0270121 19.43186045 120.87029952 6 127 C-0.36096208 129.08696324 -7.67140695 128.24107438 -14.3125 128.25 C-15.09412506 128.25233643 -15.87575012 128.25467285 -16.68106079 128.25708008 C-29.98243966 128.27209697 -42.87582881 127.26604395 -56 125 C-56 124.67 -56 124.34 -56 124 C-55.20335937 123.97421875 -54.40671875 123.9484375 -53.5859375 123.921875 C-52.52632812 123.86515625 -51.46671875 123.8084375 -50.375 123.75 C-49.33085937 123.70359375 -48.28671875 123.6571875 -47.2109375 123.609375 C-41.97268892 122.61525483 -38.99117891 120.26026185 -35.7265625 116.109375 C-23.09187147 95.91265699 -14.80995008 75.08068253 -9 52 C-8.81195801 51.27570801 -8.62391602 50.55141602 -8.43017578 49.80517578 C-4.23135077 33.49481046 -2.3233432 16.65636292 0 0 Z " fill="#D1D3D4" transform="translate(262,166)"/>
<path d="M0 0 C2.83467342 0.08782642 5.66653416 0.19480902 8.5 0.3125 C9.68722656 0.34633789 9.68722656 0.34633789 10.8984375 0.38085938 C16.50363323 0.63355263 20.89391006 1.62205325 26 4 C28.17489568 7.26234352 28.25516658 8.20928584 28.2746582 11.98706055 C28.28419022 13.00209152 28.29372223 14.0171225 28.30354309 15.06291199 C28.30263168 16.15976822 28.30172028 17.25662445 28.30078125 18.38671875 C28.30506638 19.51769485 28.3093515 20.64867096 28.31376648 21.81391907 C28.3195147 24.21049327 28.32000644 26.60708493 28.31567383 29.00366211 C28.31252736 32.65574337 28.3359209 36.30700411 28.36132812 39.95898438 C28.36360252 42.28906148 28.36430396 44.61914076 28.36328125 46.94921875 C28.372491 48.03595383 28.38170074 49.1226889 28.39118958 50.24235535 C28.35311063 56.54397514 27.61634576 61.24974678 25 67 C25.66 67.66 26.32 68.32 27 69 C27 69.99 27 70.98 27 72 C19.74 72.33 12.48 72.66 5 73 C4.505 74.98 4.505 74.98 4 77 C-2.31891316 80.2397178 -8.02827024 80.41597843 -15.02734375 80.328125 C-16.05686661 80.32625183 -17.08638947 80.32437866 -18.14710999 80.32244873 C-20.30782341 80.31576083 -22.46852541 80.30191193 -24.62915039 80.28125 C-27.95144788 80.24986825 -31.27327155 80.24025238 -34.59570312 80.234375 C-36.69792251 80.22521339 -38.80013704 80.21484032 -40.90234375 80.203125 C-41.90015366 80.19887512 -42.89796356 80.19462524 -43.92601013 80.19024658 C-44.84108841 80.18063904 -45.75616669 80.17103149 -46.69897461 80.16113281 C-47.91187416 80.15089081 -47.91187416 80.15089081 -49.14927673 80.14044189 C-51 80 -51 80 -52 79 C-52.0883967 76.6243148 -52.11530305 74.27791326 -52.09765625 71.90234375 C-52.0962413 71.19348526 -52.09482635 70.48462677 -52.09336853 69.75428772 C-52.08775443 67.48198288 -52.07519963 65.20977525 -52.0625 62.9375 C-52.05748681 61.40039204 -52.05292359 59.86328255 -52.04882812 58.32617188 C-52.03778042 54.55074358 -52.02050641 50.77538829 -52 47 C-45.02584356 46.89821951 -38.05188011 46.82837504 -31.07714844 46.78027344 C-28.70663291 46.76021174 -26.33616655 46.73295574 -23.96582031 46.69824219 C-20.55000649 46.64948582 -17.13484945 46.62697601 -13.71875 46.609375 C-12.66635132 46.58872986 -11.61395264 46.56808472 -10.52966309 46.54681396 C-3.88620805 46.54480769 0.29638411 47.55157952 6 51 C6 51.66 6 52.32 6 53 C12.27 53 18.54 53 25 53 C22.00445767 45.87948349 22.00445767 45.87948349 16.9375 42.125 C16.26589844 41.75632813 15.59429687 41.38765625 14.90234375 41.0078125 C14.27457031 40.67523438 13.64679688 40.34265625 13 40 C12.01 39.34 11.02 38.68 10 38 C19.08548387 38.34677419 19.08548387 38.34677419 22.625 40.875 C24 43 24 43 24 46 C24.66 46 25.32 46 26 46 C26.02486762 41.57088594 26.04293889 37.14180975 26.05493164 32.71264648 C26.05993555 31.2084075 26.06674073 29.70417332 26.07543945 28.19995117 C26.08767884 26.02781991 26.09326786 23.85575341 26.09765625 21.68359375 C26.10551147 19.72764282 26.10551147 19.72764282 26.11352539 17.73217773 C26.00130168 14.04279318 25.78216582 10.60984517 25 7 C18.68326239 2.78884159 12.20906701 2.68511241 4.79296875 2.34375 C2 2 2 2 0 0 Z " fill="#206C11" transform="translate(130,93)"/>
<path d="M0 0 C13.28234909 1.95041837 21.53265081 8.4774786 31.10644531 17.27587891 C34.0980439 19.99979191 37.17180468 22.62486689 40.25 25.25 C40.83193115 25.74902832 41.4138623 26.24805664 42.01342773 26.76220703 C46.3052637 30.43502235 50.6719506 34.00824572 55.0625 37.5625 C57.36332886 39.47169842 59.62600036 41.40603144 61.875 43.375 C62.54732666 43.9635376 63.21965332 44.5520752 63.91235352 45.15844727 C65.23655965 46.32173721 66.55750818 47.48874861 67.87475586 48.65991211 C68.48198486 49.19366455 69.08921387 49.72741699 69.71484375 50.27734375 C70.25230225 50.75421631 70.78976074 51.23108887 71.34350586 51.72241211 C73.13484493 53.10400052 74.95073001 54.0524461 77 55 C77.06058594 53.83984375 77.12117188 52.6796875 77.18359375 51.484375 C77.6545968 42.64240632 78.18730226 33.81863509 79 25 C79.495 26.98 79.495 26.98 80 29 C80.70125 29.12375 81.4025 29.2475 82.125 29.375 C85.17656387 30.03838345 88.05340938 30.97211955 91 32 C90.505 30.515 90.505 30.515 90 29 C89.87218214 26.32605036 89.95608129 23.67904143 90 21 C90.33 21 90.66 21 91 21 C91.08975098 21.61182129 91.17950195 22.22364258 91.27197266 22.85400391 C93.42175497 37.23318302 96.33491627 51.0913453 100.51269531 65.02075195 C101 67 101 67 101 70 C69.42997836 65.74554073 26.4290463 40.1548511 7.20629883 15.29248047 C0 5.70450061 0 5.70450061 0 0 Z " fill="#CED4D1" transform="translate(1,197)"/>
<path d="M0 0 C1.09014771 3.80599041 0.80869366 6.63423219 0.1875 10.5625 C0.01605469 11.69816406 -0.15539062 12.83382812 -0.33203125 14.00390625 C-1 17 -1 17 -3 20 C-1.80375 20.37125 -0.6075 20.7425 0.625 21.125 C4.99524883 22.58407669 9.25489801 24.2760603 13.5 26.0625 C14.7065625 26.56910156 15.913125 27.07570313 17.15625 27.59765625 C20 29 20 29 21 31 C23.57951874 31.69093896 23.57951874 31.69093896 26.5625 32.125 C28.08037109 32.37636719 28.08037109 32.37636719 29.62890625 32.6328125 C30.41136719 32.75398438 31.19382812 32.87515625 32 33 C31.01 33.66 30.02 34.32 29 35 C29 35.66 29 36.32 29 37 C29.99902344 37.33773437 30.99804688 37.67546875 32.02734375 38.0234375 C33.33086217 38.47357336 34.63424043 38.92411525 35.9375 39.375 C36.9265332 39.70757812 36.9265332 39.70757812 37.93554688 40.046875 C42.88671875 41.7734375 42.88671875 41.7734375 44 44 C44.08400529 45.59447464 44.10727467 47.19240545 44.09765625 48.7890625 C44.09443359 49.73007813 44.09121094 50.67109375 44.08789062 51.640625 C44.07532227 53.11789063 44.07532227 53.11789063 44.0625 54.625 C44.05798828 55.61757812 44.05347656 56.61015625 44.04882812 57.6328125 C44.03702145 60.0886016 44.020554 62.54427104 44 65 C35.21172192 65.39946719 26.93320756 64.07735594 18.30419922 62.60131836 C15.87522979 62.18753915 13.44384696 61.79122128 11.01171875 61.39648438 C9.44253393 61.13385239 7.87351706 60.87021456 6.3046875 60.60546875 C5.58989227 60.48970993 4.87509705 60.37395111 4.13864136 60.25468445 C-0.85309349 59.38460408 -5.29726152 57.89092437 -10 56 C-10.14412569 50.36290867 -9.6930587 45.28192663 -8.57421875 39.765625 C-8.42596146 39.00634705 -8.27770416 38.24706909 -8.12495422 37.46478271 C-7.81153787 35.86742386 -7.49452517 34.2707668 -7.17407227 32.67480469 C-6.69185801 30.27171792 -6.22093187 27.86663844 -5.75195312 25.4609375 C-4.07038321 16.90901015 -2.23755425 8.42739487 0 0 Z " fill="#FCFCFC" transform="translate(276,92)"/>
<path d="M0 0 C9.00708524 -0.4114912 16.8873719 -0.51286984 24 5.5625 C27.73240268 10.11136576 27.39949049 14.03116144 27.3359375 19.7890625 C27.02281898 22.78189304 26.78246199 24.26832206 25 26.625 C19.22469123 31.19711944 13.33999145 32.45473993 6.0234375 32.34057617 C5.27124435 32.34101425 4.51905121 32.34145233 3.74406433 32.34190369 C1.2874343 32.33983364 -1.16849099 32.3165886 -3.625 32.29296875 C-5.33992134 32.28736642 -7.05484751 32.28309933 -8.76977539 32.28010559 C-13.26118462 32.26870694 -17.75229811 32.23928323 -22.24359131 32.20599365 C-26.83553061 32.17518482 -31.42751816 32.16157724 -36.01953125 32.14648438 C-45.01315004 32.11440826 -54.00655033 32.06327286 -63 32 C-63 28.7 -63 25.4 -63 22 C-61.72879807 21.9845388 -61.72879807 21.9845388 -60.43191528 21.96876526 C-52.4563182 21.8709021 -44.4807972 21.76840373 -36.50532722 21.66066074 C-32.4047835 21.60542983 -28.30423265 21.55200956 -24.20361328 21.50268555 C-20.24838828 21.45504447 -16.2932512 21.40270176 -12.33813095 21.34705925 C-10.82703711 21.32663453 -9.31591916 21.30792164 -7.80478287 21.29092598 C-5.69284576 21.26688449 -3.58107532 21.23682978 -1.46923828 21.20532227 C-0.26566681 21.18977798 0.93790466 21.1742337 2.177948 21.15821838 C4.95074633 21.18981223 4.95074633 21.18981223 7 20 C7 17.36 7 14.72 7 12 C4.69 11.34 2.38 10.68 0 10 C0 6.7 0 3.4 0 0 Z " fill="#FBFBF3" transform="translate(232,151)"/>
<path d="M0 0 C1.62284673 0.00306133 3.24569609 0.00493461 4.86854553 0.00567627 C8.25336918 0.01025912 11.63795222 0.02461461 15.02270508 0.046875 C19.36966053 0.07531456 23.7164283 0.08610451 28.06346798 0.0905571 C31.40649807 0.094702 34.74949 0.10450907 38.09250069 0.11643219 C39.69654599 0.12214067 41.30059496 0.12689746 42.90464592 0.13069916 C45.13563463 0.13753693 47.36647148 0.15115305 49.59741211 0.16699219 C51.50314247 0.17723419 51.50314247 0.17723419 53.44737244 0.18768311 C56.28515625 0.328125 56.28515625 0.328125 57.28515625 1.328125 C57.38306195 2.82550624 57.41490489 4.32755392 57.41015625 5.828125 C57.41402344 7.05015625 57.41402344 7.05015625 57.41796875 8.296875 C57.28515625 10.328125 57.28515625 10.328125 56.28515625 11.328125 C54.23037172 11.45193338 52.17136665 11.50610703 50.11303711 11.53344727 C49.46915543 11.54334686 48.82527374 11.55324646 48.16188049 11.56344604 C46.02462494 11.59514028 43.88734712 11.61984949 41.75 11.64453125 C40.27168689 11.66509396 38.79337976 11.68609024 37.31507874 11.70750427 C33.41723454 11.76279559 29.51933667 11.81217357 25.62139893 11.86035156 C21.64663902 11.91051519 17.67195741 11.96622801 13.69726562 12.02148438 C5.8932954 12.12915224 -1.91073977 12.23057787 -9.71484375 12.328125 C-10.37484375 13.648125 -11.03484375 14.968125 -11.71484375 16.328125 C-17.65484375 16.328125 -23.59484375 16.328125 -29.71484375 16.328125 C-29.71484375 8.14300222 -29.71484375 8.14300222 -26.28627014 4.60321045 C-18.93434618 -1.36228136 -8.88637248 -0.07328732 0 0 Z " fill="#FDFDF8" transform="translate(198.71484375,128.671875)"/>
<path d="M0 0 C0.33 0 0.66 0 1 0 C1.18451025 16.70842825 1.18451025 16.70842825 0 25 C3.96 25 7.92 25 12 25 C12 25.33 12 25.66 12 26 C9.36 26 6.72 26 4 26 C4 26.66 4 27.32 4 28 C6.31 28 8.62 28 11 28 C11 29.32 11 30.64 11 32 C9.35 32 7.7 32 6 32 C6 31.34 6 30.68 6 30 C5.34 30 4.68 30 4 30 C4 31.32 4 32.64 4 34 C6.97 34 9.94 34 13 34 C13 31.69 13 29.38 13 27 C13.99 27.33 14.98 27.66 16 28 C16.33 26.68 16.66 25.36 17 24 C17.66 24 18.32 24 19 24 C19 23.34 19 22.68 19 22 C18.24074219 22.02320313 17.48148438 22.04640625 16.69921875 22.0703125 C15.70535156 22.08835938 14.71148437 22.10640625 13.6875 22.125 C12.20830078 22.15980469 12.20830078 22.15980469 10.69921875 22.1953125 C8 22 8 22 5 20 C11.27 20 17.54 20 24 20 C24 20.99 24 21.98 24 23 C27.63 23 31.26 23 35 23 C35 23.66 35 24.32 35 25 C45.89 25 56.78 25 68 25 C68 28.3 68 31.6 68 35 C66.18706911 34.85962479 64.3746557 34.71255111 62.5625 34.5625 C61.55316406 34.48128906 60.54382813 34.40007812 59.50390625 34.31640625 C57 34 57 34 56 33 C55.95936168 31.33382885 55.957279 29.66611905 56 28 C54.02 28 52.04 28 50 28 C50 29.98 50 31.96 50 34 C46.45811722 35.09828769 43.1790238 35.11445011 39.484375 35.09765625 C37.60878906 35.09282227 37.60878906 35.09282227 35.6953125 35.08789062 C33.74238281 35.07532227 33.74238281 35.07532227 31.75 35.0625 C29.77386719 35.05573242 29.77386719 35.05573242 27.7578125 35.04882812 C24.50516259 35.03704316 21.25260416 35.02059011 18 35 C18 34.34 18 33.68 18 33 C17.45730469 33.32613281 16.91460937 33.65226562 16.35546875 33.98828125 C13.51616714 35.20781544 11.39204391 35.23272695 8.3125 35.1875 C7.33925781 35.18105469 6.36601562 35.17460937 5.36328125 35.16796875 C3 35 3 35 2 34 C1.63239269 31.67182036 1.29758419 29.3381615 1 27 C0.01 26.67 -0.98 26.34 -2 26 C-1.86004486 22.79138226 -1.71197743 19.58318712 -1.5625 16.375 C-1.52318359 15.47136719 -1.48386719 14.56773437 -1.44335938 13.63671875 C-1.22421542 9.01783854 -0.8991149 4.54846364 0 0 Z " fill="#637820" transform="translate(164,126)"/>
<path d="M0 0 C4.06518346 3.43700941 5.70442841 7.26251625 7.6875 12.0625 C7.99494141 12.78244141 8.30238281 13.50238281 8.61914062 14.24414062 C11.22717092 20.3904177 13.23737847 25.54543752 11.375 32.25 C9.27287709 34.92542916 7.16035383 35.73374216 4 37 C0.86240788 37.3469013 -2.2233458 37.28551795 -5.375 37.1875 C-6.20644531 37.17396484 -7.03789062 37.16042969 -7.89453125 37.14648438 C-9.92997066 37.11139059 -11.96507291 37.05759228 -14 37 C-13.40196106 32.2733308 -12.04998978 28.37567218 -10.1875 24 C-7.53664926 17.66921938 -5.60781818 11.40145702 -3.95703125 4.73046875 C-3 2 -3 2 0 0 Z " fill="#F9FBFA" transform="translate(254,224)"/>
<path d="M0 0 C2.83467342 0.08782642 5.66653416 0.19480902 8.5 0.3125 C9.29148438 0.33505859 10.08296875 0.35761719 10.8984375 0.38085938 C16.50363323 0.63355263 20.89391006 1.62205325 26 4 C28.17489568 7.26234352 28.25516658 8.20928584 28.2746582 11.98706055 C28.28895622 13.50960701 28.28895622 13.50960701 28.30354309 15.06291199 C28.30263168 16.15976822 28.30172028 17.25662445 28.30078125 18.38671875 C28.30506638 19.51769485 28.3093515 20.64867096 28.31376648 21.81391907 C28.3195147 24.21049327 28.32000644 26.60708493 28.31567383 29.00366211 C28.31252736 32.65574337 28.3359209 36.30700411 28.36132812 39.95898438 C28.36360252 42.28906148 28.36430396 44.61914076 28.36328125 46.94921875 C28.372491 48.03595383 28.38170074 49.1226889 28.39118958 50.24235535 C28.35311063 56.54397514 27.61634576 61.24974678 25 67 C16.28463058 68.10309867 7.64101242 68.11585308 -1.125 68.0625 C-2.57291511 68.05747252 -4.02083192 68.05291183 -5.46875 68.04882812 C-8.97920259 68.03792705 -12.48959007 68.02073202 -16 68 C-15.82597656 67.38640625 -15.65195313 66.7728125 -15.47265625 66.140625 C-14.93994607 63.7280202 -15.25276496 62.32473122 -16 60 C-10.65338434 58.21882199 -6.05499771 57.72756171 -0.44140625 57.8046875 C0.34774673 57.8075174 1.13689972 57.81034729 1.94996643 57.81326294 C4.44597172 57.82436943 6.94160498 57.84945545 9.4375 57.875 C11.13996874 57.88504215 12.84244316 57.89416583 14.54492188 57.90234375 C18.69675576 57.9242774 22.84831502 57.95874023 27 58 C26.28924662 56.07642916 25.55554122 54.16133066 24.8125 52.25 C24.40644531 51.18265625 24.00039062 50.1153125 23.58203125 49.015625 C21.23023576 44.53269631 17.84692894 42.07722703 13.1875 40.25 C12.135625 39.8375 11.08375 39.425 10 39 C10 38.67 10 38.34 10 38 C19.08548387 38.34677419 19.08548387 38.34677419 22.625 40.875 C24 43 24 43 24 46 C24.66 46 25.32 46 26 46 C26.02486762 41.57088594 26.04293889 37.14180975 26.05493164 32.71264648 C26.05993555 31.2084075 26.06674073 29.70417332 26.07543945 28.19995117 C26.08767884 26.02781991 26.09326786 23.85575341 26.09765625 21.68359375 C26.10289307 20.37962646 26.10812988 19.07565918 26.11352539 17.73217773 C26.00130168 14.04279318 25.78216582 10.60984517 25 7 C18.68326239 2.78884159 12.20906701 2.68511241 4.79296875 2.34375 C2 2 2 2 0 0 Z " fill="#3D6A23" transform="translate(130,93)"/>
<path d="M0 0 C0.33 0 0.66 0 1 0 C1 16.83 1 33.66 1 51 C5.455 50.98839844 9.91 50.97679687 14.5 50.96484375 C18.06864901 50.95840561 21.63729636 50.95298533 25.20594788 50.94824982 C28.96397074 50.94298542 32.72197078 50.93595872 36.47998047 50.92456055 C40.10449447 50.91363698 43.72898643 50.90770322 47.35351562 50.90512276 C48.73128608 50.90328549 50.10905542 50.89969799 51.48681641 50.89426994 C58.41251377 50.86808764 65.15265399 50.90548507 72 52 C72 52.33 72 52.66 72 53 C57.15 53 42.3 53 27 53 C27.639375 57.434375 28.27875 61.86875 28.9375 66.4375 C30.46884344 77.29633857 31.68264503 88.03538591 32 99 C28.03564468 98.44683414 24.6837622 97.54379132 21 96 C20.86585465 88.03077226 21.26235647 80.18892175 21.9375 72.25 C22.02451172 71.16589844 22.11152344 70.08179688 22.20117188 68.96484375 C22.64243387 63.61086483 23.15856696 58.30633447 24 53 C23.30849854 53.00523682 22.61699707 53.01047363 21.90454102 53.01586914 C18.79053648 53.036575 15.67654639 53.04963963 12.5625 53.0625 C11.47388672 53.07087891 10.38527344 53.07925781 9.26367188 53.08789062 C8.22919922 53.09111328 7.19472656 53.09433594 6.12890625 53.09765625 C5.17056885 53.10289307 4.21223145 53.10812988 3.22485352 53.11352539 C1 53 1 53 0 52 C-0.09340434 50.37325222 -0.11745171 48.74245949 -0.11352539 47.11303711 C-0.11344986 46.07203354 -0.11337433 45.03102997 -0.11329651 43.95848083 C-0.10813522 42.8262056 -0.10297394 41.69393036 -0.09765625 40.52734375 C-0.0962413 39.37456436 -0.09482635 38.22178497 -0.09336853 37.03407288 C-0.08775005 33.33518936 -0.07519442 29.63636536 -0.0625 25.9375 C-0.05748738 23.43684983 -0.05292406 20.93619871 -0.04882812 18.43554688 C-0.03777462 12.29034412 -0.02101852 6.14517631 0 0 Z " fill="#EEF7EF" transform="translate(60,130)"/>
<path d="M0 0 C1.09014771 3.80599041 0.80869366 6.63423219 0.1875 10.5625 C0.01605469 11.69816406 -0.15539062 12.83382812 -0.33203125 14.00390625 C-1 17 -1 17 -3 20 C-1.80375 20.37125 -0.6075 20.7425 0.625 21.125 C4.99524883 22.58407669 9.25489801 24.2760603 13.5 26.0625 C14.7065625 26.56910156 15.913125 27.07570313 17.15625 27.59765625 C20 29 20 29 21 31 C23.57951874 31.69093896 23.57951874 31.69093896 26.5625 32.125 C28.08037109 32.37636719 28.08037109 32.37636719 29.62890625 32.6328125 C30.41136719 32.75398438 31.19382812 32.87515625 32 33 C31.01 33.66 30.02 34.32 29 35 C29 35.66 29 36.32 29 37 C33.62 38.65 38.24 40.3 43 42 C42.505 42.99 42.505 42.99 42 44 C29.88049726 42.06352179 18.11605526 39.75516149 6.43652344 35.93115234 C2.50657889 34.65960349 -0.80708064 33.62879587 -5 34 C-9.34775439 25.30449123 -2.26027762 8.94272925 0 0 Z " fill="#F1F1F1" transform="translate(276,92)"/>
<path d="M0 0 C1.32 0 2.64 0 4 0 C4 0.66 4 1.32 4 2 C14.89 2 25.78 2 37 2 C37 5.3 37 8.6 37 12 C35.18706911 11.85962479 33.3746557 11.71255111 31.5625 11.5625 C30.04849609 11.44068359 30.04849609 11.44068359 28.50390625 11.31640625 C26 11 26 11 25 10 C24.95936168 8.33382885 24.957279 6.66611905 25 5 C23.02 5 21.04 5 19 5 C19 6.98 19 8.96 19 11 C13.06 11 7.12 11 1 11 C-1.25 4.25 -1.25 4.25 0 0 Z " fill="#7B7B1E" transform="translate(195,149)"/>
<path d="M0 0 C0.33 0 0.66 0 1 0 C1.25523437 0.80050781 1.25523437 0.80050781 1.515625 1.6171875 C2.89747969 5.86565564 4.39376862 10.00542753 6.125 14.125 C7.75900608 18.15973809 8.81835663 21.64055919 9 26 C7 28 7 28 3.3046875 28.1953125 C1.82799892 28.182009 0.35137642 28.15814835 -1.125 28.125 C-1.87910156 28.11597656 -2.63320312 28.10695312 -3.41015625 28.09765625 C-5.27357254 28.0740687 -7.13682593 28.03819719 -9 28 C-8.40251953 26.22496094 -8.40251953 26.22496094 -7.79296875 24.4140625 C-3.71389187 12.26485764 -3.71389187 12.26485764 0 0 Z " fill="#D1D3D0" transform="translate(251,226)"/>
<path d="M0 0 C2.83467342 0.08782642 5.66653416 0.19480902 8.5 0.3125 C9.29148438 0.33505859 10.08296875 0.35761719 10.8984375 0.38085938 C16.50363323 0.63355263 20.89391006 1.62205325 26 4 C28.17489568 7.26234352 28.25516658 8.20928584 28.2746582 11.98706055 C28.28895622 13.50960701 28.28895622 13.50960701 28.30354309 15.06291199 C28.30263168 16.15976822 28.30172028 17.25662445 28.30078125 18.38671875 C28.30506638 19.51769485 28.3093515 20.64867096 28.31376648 21.81391907 C28.3195147 24.21049327 28.32000644 26.60708493 28.31567383 29.00366211 C28.31252736 32.65574337 28.3359209 36.30700411 28.36132812 39.95898438 C28.36360252 42.28906148 28.36430396 44.61914076 28.36328125 46.94921875 C28.372491 48.03595383 28.38170074 49.1226889 28.39118958 50.24235535 C28.35311063 56.54397514 27.61634576 61.24974678 25 67 C23.52093108 67.02689216 22.04172517 67.04634621 20.5625 67.0625 C19.32693359 67.07990234 19.32693359 67.07990234 18.06640625 67.09765625 C16 67 16 67 15 66 C14.875 63 14.875 63 15 60 C16.73956658 58.26043342 19.1936622 58.62809614 21.5625 58.4375 C22.57441406 58.35371094 23.58632812 58.26992187 24.62890625 58.18359375 C25.80259766 58.09271484 25.80259766 58.09271484 27 58 C26.28924662 56.07642916 25.55554122 54.16133066 24.8125 52.25 C24.40644531 51.18265625 24.00039062 50.1153125 23.58203125 49.015625 C21.21656417 44.50663589 17.87474061 42.08813357 13.1875 40.25 C11.6096875 39.63125 11.6096875 39.63125 10 39 C10 38.67 10 38.34 10 38 C19.08548387 38.34677419 19.08548387 38.34677419 22.625 40.875 C24 43 24 43 24 46 C24.66 46 25.32 46 26 46 C26.02486762 41.57088594 26.04293889 37.14180975 26.05493164 32.71264648 C26.05993555 31.2084075 26.06674073 29.70417332 26.07543945 28.19995117 C26.08767884 26.02781991 26.09326786 23.85575341 26.09765625 21.68359375 C26.10289307 20.37962646 26.10812988 19.07565918 26.11352539 17.73217773 C26.00130168 14.04279318 25.78216582 10.60984517 25 7 C18.68326239 2.78884159 12.20906701 2.68511241 4.79296875 2.34375 C2 2 2 2 0 0 Z " fill="#587620" transform="translate(130,93)"/>
<path d="M0 0 C0.33 0 0.66 0 1 0 C1.0270043 1.45823212 1.04639787 2.91660675 1.0625 4.375 C1.07410156 5.18710938 1.08570313 5.99921875 1.09765625 6.8359375 C1 9 1 9 0 11 C17.22448577 14.35798461 34.52331292 16.50851566 52 18 C52 19.65 52 21.3 52 23 C46.00887994 23.11383239 40.42725438 22.79700137 34.52734375 21.79296875 C33.75999405 21.6669075 32.99264435 21.54084625 32.20204163 21.41096497 C30.59397246 21.14469029 28.98650319 20.87476865 27.37963867 20.60131836 C24.94169749 20.18821126 22.50145264 19.79165061 20.06054688 19.39648438 C18.48681346 19.13380331 16.91323972 18.87016349 15.33984375 18.60546875 C14.62191147 18.48970993 13.90397919 18.37395111 13.16429138 18.25468445 C8.16181538 17.38680423 3.71185644 15.89578728 -1 14 C-1.08333357 9.1666528 -0.95261487 4.76307437 0 0 Z " fill="#D6D6D6" transform="translate(267,134)"/>
<path d="M0 0 C16.5 0 33 0 50 0 C50 0.33 50 0.66 50 1 C34.49 1.33 18.98 1.66 3 2 C3 11.24 3 20.48 3 30 C6.23876953 29.98259766 6.23876953 29.98259766 9.54296875 29.96484375 C11.68123224 29.95700013 13.819494 29.95095372 15.95776367 29.94506836 C17.42098736 29.94010176 18.88420625 29.93332622 20.34741211 29.92456055 C29.618882 29.87049023 38.75931051 30.11168402 48 31 C48 31.66 48 32.32 48 33 C41.3247966 33.02526945 34.64960543 33.04283268 27.97436523 33.05493164 C25.70157409 33.05997325 23.4287862 33.06680637 21.15600586 33.07543945 C17.89696449 33.08751261 14.63796583 33.09322987 11.37890625 33.09765625 C10.35599991 33.10281754 9.33309357 33.10797882 8.27919006 33.11329651 C7.33829025 33.11337204 6.39739044 33.11344757 5.42797852 33.11352539 C4.59524918 33.115746 3.76251984 33.11796661 2.90455627 33.12025452 C1 33 1 33 0 32 C-0.08838648 29.62458949 -0.11537523 27.2776642 -0.09765625 24.90234375 C-0.09515869 23.60546631 -0.09266113 22.30858887 -0.09008789 20.97241211 C-0.08098389 19.31089111 -0.07187988 17.64937012 -0.0625 15.9375 C-0.041875 10.678125 -0.02125 5.41875 0 0 Z " fill="#3C7B3B" transform="translate(78,140)"/>
<path d="M0 0 C0.33 0 0.66 0 1 0 C1.33 2.64 1.66 5.28 2 8 C2.33 6.68 2.66 5.36 3 4 C3.66 4 4.32 4 5 4 C5.18451025 16.66970387 5.18451025 16.66970387 4 22 C5.32 22.33 6.64 22.66 8 23 C8 25.31 8 27.62 8 30 C7.34 30 6.68 30 6 30 C6 28.02 6 26.04 6 24 C5.34 24 4.68 24 4 24 C4.01160156 24.61101562 4.02320313 25.22203125 4.03515625 25.8515625 C4.14095764 36.58284637 3.53773587 47.28532669 3 58 C2.67 58 2.34 58 2 58 C1.33566818 48.65190221 0.8401345 39.37877608 1 30 C0.01 30 -0.98 30 -2 30 C-2.04241723 27.66705225 -2.04092937 25.33297433 -2 23 C-1.67 22.67 -1.34 22.34 -1 22 C-0.84285346 20.36743242 -0.74914586 18.72864662 -0.68359375 17.08984375 C-0.62075195 15.60581055 -0.62075195 15.60581055 -0.55664062 14.09179688 C-0.49766602 12.53041992 -0.49766602 12.53041992 -0.4375 10.9375 C-0.39431641 9.89271484 -0.35113281 8.84792969 -0.30664062 7.77148438 C-0.20018775 5.18113116 -0.0981724 2.59067814 0 0 Z " fill="#D2E1BA" transform="translate(158,130)"/>
<path d="M0 0 C0.33 0 0.66 0 1 0 C1 16.83 1 33.66 1 51 C5.455 50.98839844 9.91 50.97679687 14.5 50.96484375 C18.06864901 50.95840561 21.63729636 50.95298533 25.20594788 50.94824982 C28.96397074 50.94298542 32.72197078 50.93595872 36.47998047 50.92456055 C40.10449447 50.91363698 43.72898643 50.90770322 47.35351562 50.90512276 C48.73128608 50.90328549 50.10905542 50.89969799 51.48681641 50.89426994 C58.41251377 50.86808764 65.15265399 50.90548507 72 52 C72 52.33 72 52.66 72 53 C57.15 53 42.3 53 27 53 C27 54.65 27 56.3 27 58 C26.01 58 25.02 58 24 58 C24 56.35 24 54.7 24 53 C23.30849854 53.00523682 22.61699707 53.01047363 21.90454102 53.01586914 C18.79053648 53.036575 15.67654639 53.04963963 12.5625 53.0625 C11.47388672 53.07087891 10.38527344 53.07925781 9.26367188 53.08789062 C8.22919922 53.09111328 7.19472656 53.09433594 6.12890625 53.09765625 C5.17056885 53.10289307 4.21223145 53.10812988 3.22485352 53.11352539 C1 53 1 53 0 52 C-0.09340434 50.37325222 -0.11745171 48.74245949 -0.11352539 47.11303711 C-0.11344986 46.07203354 -0.11337433 45.03102997 -0.11329651 43.95848083 C-0.10813522 42.8262056 -0.10297394 41.69393036 -0.09765625 40.52734375 C-0.0962413 39.37456436 -0.09482635 38.22178497 -0.09336853 37.03407288 C-0.08775005 33.33518936 -0.07519442 29.63636536 -0.0625 25.9375 C-0.05748738 23.43684983 -0.05292406 20.93619871 -0.04882812 18.43554688 C-0.03777462 12.29034412 -0.02101852 6.14517631 0 0 Z " fill="#DDF2DE" transform="translate(60,130)"/>
<path d="M0 0 C9.50074325 -0.02312484 19.00147688 -0.0409158 28.50224209 -0.05181217 C32.91337004 -0.05704069 37.3244788 -0.06413777 41.7355957 -0.07543945 C45.98901115 -0.08626944 50.24240809 -0.09227707 54.49583626 -0.09487724 C56.12221633 -0.09673129 57.74859534 -0.10035152 59.37496758 -0.10573006 C61.64510193 -0.11294198 63.91515885 -0.11399088 66.18530273 -0.11352539 C68.12722755 -0.11685631 68.12722755 -0.11685631 70.10838318 -0.12025452 C73 0 73 0 74 1 C74.0979057 2.49738124 74.12974864 3.99942892 74.125 5.5 C74.12886719 6.72203125 74.12886719 6.72203125 74.1328125 7.96875 C74 10 74 10 73 11 C71.03630847 11.0940067 69.06920801 11.11743381 67.10327148 11.11352539 C65.84203964 11.11344986 64.5808078 11.11337433 63.28135681 11.11329651 C61.89460206 11.1081891 60.50784771 11.10297309 59.12109375 11.09765625 C57.71004791 11.09579201 56.29900143 11.09436814 54.88795471 11.09336853 C51.16759465 11.08954379 47.4472734 11.0797139 43.72692871 11.06866455 C39.93319219 11.05844948 36.13944942 11.05387071 32.34570312 11.04882812 C24.89711769 11.03809158 17.44856428 11.0210157 10 11 C10 10.67 10 10.34 10 10 C30.13 9.67 50.26 9.34 71 9 C71.33 6.69 71.66 4.38 72 2 C48.24 1.67 24.48 1.34 0 1 C0 0.67 0 0.34 0 0 Z " fill="#EEE9BB" transform="translate(182,129)"/>
<path d="M0 0 C3.33534918 -0.06386839 6.6644554 -0.05060826 10 0 C10.77988281 0.00386719 11.55976563 0.00773437 12.36328125 0.01171875 C19.27369826 0.34852899 25.20633912 2.83925982 31.484375 5.52734375 C34.62468234 6.8427836 37.75672039 7.97030847 41 9 C40.67 9.66 40.34 10.32 40 11 C26.16231121 8.82945856 13.14313767 5.86782877 0 1 C0 0.67 0 0.34 0 0 Z " fill="#D6D6D6" transform="translate(278,125)"/>
<path d="M0 0 C6.8359375 -0.1953125 6.8359375 -0.1953125 9 0 C11 2 11 2 11.25 5 C11 8 11 8 9 10 C5.98173347 10.27240673 3.03629378 10.08675125 0 10 C0 6.7 0 3.4 0 0 Z " fill="#D3F2D2" transform="translate(91,150)"/>
<path d="M0 0 C0.33 0.66 0.66 1.32 1 2 C3.05094386 2.72999697 5.10785449 3.44538202 7.18359375 4.1015625 C19.97327951 8.18148999 32.47296805 13.1889455 45 18 C40.81317643 19.39560786 37.81237049 17.89433765 33.7890625 16.54296875 C32.98391205 16.27994461 32.1787616 16.01692047 31.34921265 15.7459259 C28.77165972 14.90142171 26.19844383 14.04443373 23.625 13.1875 C21.89869334 12.6209646 20.17213347 12.05520017 18.4453125 11.49023438 C4.85943892 7.02627162 4.85943892 7.02627162 0 5 C0 3.35 0 1.7 0 0 Z " fill="#DBDBD9" transform="translate(268,128)"/>
<path d="M0 0 C1.57752981 0.02621952 3.15507579 0.05148217 4.7326355 0.07583618 C8.85254642 0.1419746 12.97211054 0.22097375 17.09173584 0.30279541 C21.30841932 0.3842206 25.52530408 0.45328477 29.7421875 0.5234375 C37.99243178 0.66248789 46.24235061 0.81514661 54.4921875 0.9765625 C54.4921875 1.3065625 54.4921875 1.6365625 54.4921875 1.9765625 C53.16580261 1.98536186 53.16580261 1.98536186 51.81262207 1.99433899 C43.45616832 2.05237923 35.09997863 2.12452063 26.74378204 2.21227741 C22.44834795 2.25689671 18.15300686 2.29617112 13.85742188 2.32299805 C9.70752353 2.34911567 5.5579847 2.389577 1.40830994 2.43974876 C-0.17036955 2.45636053 -1.74911115 2.46791011 -3.3278656 2.47417641 C-12.25108836 2.5131595 -19.38119353 2.91325302 -27.5078125 6.9765625 C-27.1778125 5.3265625 -26.8478125 3.6765625 -26.5078125 1.9765625 C-17.69768422 -0.42626059 -9.03247644 -0.19505087 0 0 Z " fill="#8E832B" transform="translate(199.5078125,127.0234375)"/>
<path d="M0 0 C0.66 0 1.32 0 2 0 C2.02687279 1.81242052 2.04633715 3.62495233 2.0625 5.4375 C2.07410156 6.44683594 2.08570313 7.45617187 2.09765625 8.49609375 C2 11 2 11 1 12 C-0.77291057 12.11280904 -2.55024348 12.15680489 -4.32666016 12.17358398 C-6.03446152 12.19381874 -6.03446152 12.19381874 -7.77676392 12.21446228 C-9.01832245 12.22490067 -10.25988098 12.23533905 -11.5390625 12.24609375 C-14.1471386 12.27904569 -16.75521144 12.3122571 -19.36328125 12.34570312 C-23.4910058 12.3941043 -27.61875807 12.43783022 -31.74658203 12.47680664 C-35.71921785 12.51489236 -39.69159665 12.56814866 -43.6640625 12.62109375 C-45.50818222 12.63371498 -45.50818222 12.63371498 -47.38955688 12.64659119 C-55.88625397 12.76157493 -55.88625397 12.76157493 -64 15 C-64.33 15.66 -64.66 16.32 -65 17 C-65.66 17 -66.32 17 -67 17 C-67.042721 15.33388095 -67.04063832 13.66617115 -67 12 C-65.17350312 10.17350312 -62.28332493 10.82729274 -59.82788086 10.79467773 C-59.18399918 10.78477814 -58.54011749 10.77487854 -57.87672424 10.76467896 C-55.73946869 10.73298472 -53.60219087 10.70827551 -51.46484375 10.68359375 C-49.98653064 10.66303104 -48.50822351 10.64203476 -47.02992249 10.62062073 C-43.13207829 10.56532941 -39.23418042 10.51595143 -35.33624268 10.46777344 C-31.36148277 10.41760981 -27.38680116 10.36189699 -23.41210938 10.30664062 C-15.60813915 10.19897276 -7.80410398 10.09754713 0 10 C0 6.7 0 3.4 0 0 Z " fill="#968220" transform="translate(255,129)"/>
<path d="M0 0 C0.47953125 0.42925781 0.9590625 0.85851562 1.453125 1.30078125 C4.98792224 3.6591199 8.74007658 4.84088393 12.75 6.1875 C13.54277344 6.46013672 14.33554687 6.73277344 15.15234375 7.01367188 C17.09936141 7.68222613 19.04939366 8.34198978 21 9 C21 9.66 21 10.32 21 11 C13.52906777 11.29883729 6.36955011 10.15925507 -1 9 C-0.67 6.03 -0.34 3.06 0 0 Z " fill="#D6D5D2" transform="translate(271,113)"/>
<path d="M0 0 C1.48831242 0.00667405 2.97660807 0.01863442 4.46484375 0.03515625 C5.22345703 0.03966797 5.98207031 0.04417969 6.76367188 0.04882812 C8.64326246 0.06064945 10.52281274 0.07858547 12.40234375 0.09765625 C12.73234375 1.74765625 13.06234375 3.39765625 13.40234375 5.09765625 C10.52734375 5.28515625 10.52734375 5.28515625 7.40234375 5.09765625 C6.74234375 4.10765625 6.08234375 3.11765625 5.40234375 2.09765625 C5.40234375 3.41765625 5.40234375 4.73765625 5.40234375 6.09765625 C8.04234375 6.09765625 10.68234375 6.09765625 13.40234375 6.09765625 C13.40234375 6.75765625 13.40234375 7.41765625 13.40234375 8.09765625 C11.92327483 8.12454841 10.44406892 8.14400246 8.96484375 8.16015625 C7.72927734 8.17755859 7.72927734 8.17755859 6.46875 8.1953125 C4.40234375 8.09765625 4.40234375 8.09765625 3.40234375 7.09765625 C3.36170543 5.4314851 3.35962275 3.7637753 3.40234375 2.09765625 C1.42234375 2.09765625 -0.55765625 2.09765625 -2.59765625 2.09765625 C-2.59765625 4.07765625 -2.59765625 6.05765625 -2.59765625 8.09765625 C-3.25765625 8.09765625 -3.91765625 8.09765625 -4.59765625 8.09765625 C-4.64007348 5.7647085 -4.63858562 3.43063058 -4.59765625 1.09765625 C-3.59765625 0.09765625 -3.59765625 0.09765625 0 0 Z " fill="#E8E3AB" transform="translate(216.59765625,151.90234375)"/>
<path d="M0 0 C1.82724609 0.01450195 1.82724609 0.01450195 3.69140625 0.02929688 C9.41978011 0.10113581 14.98392455 0.28911906 20.625 1.3125 C20.625 1.6425 20.625 1.9725 20.625 2.3125 C-0.165 2.8075 -0.165 2.8075 -21.375 3.3125 C-21.375 3.9725 -21.375 4.6325 -21.375 5.3125 C-23.025 5.6425 -24.675 5.9725 -26.375 6.3125 C-26.705 5.6525 -27.035 4.9925 -27.375 4.3125 C-18.05190661 0.8676861 -9.90230192 -0.24034713 0 0 Z " fill="#A58A29" transform="translate(250.375,28.6875)"/>
<path d="M0 0 C0.99 0.33 1.98 0.66 3 1 C2.60460972 8.07612257 1.76651184 15.02123232 0.5625 22 C0.37917114 23.09429321 0.37917114 23.09429321 0.19213867 24.21069336 C-0.44356627 27.76675823 -1.12632206 30.8853146 -3 34 C-3.4127389 27.258598 -2.11366941 21.13083024 -0.65625 14.5859375 C-0.05272806 11.28812121 0.12334742 8.34065924 0 5 C-0.680625 5.66 -1.36125 6.32 -2.0625 7 C-5.64457375 9.43885872 -7.75519536 9.33292585 -12 9 C-11.46375 8.7525 -10.9275 8.505 -10.375 8.25 C-6.12641179 6.01390094 -2.68792483 4.03188725 0 0 Z " fill="#908323" transform="translate(258,174)"/>
<path d="M0 0 C2.83467342 0.08782642 5.66653416 0.19480902 8.5 0.3125 C9.29148438 0.33505859 10.08296875 0.35761719 10.8984375 0.38085938 C16.50363323 0.63355263 20.89391006 1.62205325 26 4 C28.36008817 7.54013225 28.23463644 9.01121955 28.1953125 13.19921875 C28.18886719 14.40771484 28.18242187 15.61621094 28.17578125 16.86132812 C28.15902344 18.12396484 28.14226562 19.38660156 28.125 20.6875 C28.11597656 21.96173828 28.10695312 23.23597656 28.09765625 24.54882812 C28.07405641 27.69940627 28.04113194 30.84960983 28 34 C27.67 34 27.34 34 27 34 C26.97494385 33.43079834 26.9498877 32.86159668 26.92407227 32.27514648 C26.80706106 29.66242687 26.6848172 27.04997638 26.5625 24.4375 C26.52318359 23.54224609 26.48386719 22.64699219 26.44335938 21.72460938 C26.13590556 14.31128082 26.13590556 14.31128082 25 7 C18.68326239 2.78884159 12.20906701 2.68511241 4.79296875 2.34375 C2 2 2 2 0 0 Z " fill="#748838" transform="translate(130,93)"/>
<path d="M0 0 C0.721875 0.00257813 1.44375 0.00515625 2.1875 0.0078125 C2.909375 0.00523437 3.63125 0.00265625 4.375 0 C6.1875 0.1328125 6.1875 0.1328125 7.1875 1.1328125 C7.3125 4.1328125 7.3125 4.1328125 7.1875 7.1328125 C6.1875 8.1328125 6.1875 8.1328125 4.375 8.265625 C3.653125 8.26304687 2.93125 8.26046875 2.1875 8.2578125 C1.465625 8.26039063 0.74375 8.26296875 0 8.265625 C-1.8125 8.1328125 -1.8125 8.1328125 -2.8125 7.1328125 C-2.9375 4.1328125 -2.9375 4.1328125 -2.8125 1.1328125 C-1.8125 0.1328125 -1.8125 0.1328125 0 0 Z " fill="#EAEBB7" transform="translate(203.8125,151.8671875)"/>
<path d="M0 0 C0.66 0 1.32 0 2 0 C2 1.98 2 3.96 2 6 C2.66 6.33 3.32 6.66 4 7 C3.01 7 2.02 7 1 7 C1.18433594 7.87785156 1.36867187 8.75570312 1.55859375 9.66015625 C2.40389375 15.57725625 1.58246102 21.51769536 1.0625 27.4375 C0.96259766 28.64599609 0.86269531 29.85449219 0.75976562 31.09960938 C0.51345535 34.06706177 0.25999893 37.03372091 0 40 C-0.66 40 -1.32 40 -2 40 C-1.8590853 35.58316237 -1.71134841 31.16657682 -1.5625 26.75 C-1.52318359 25.51507813 -1.48386719 24.28015625 -1.44335938 23.0078125 C-1.18010029 15.31254686 -0.72411828 7.66588041 0 0 Z " fill="#567929" transform="translate(162,154)"/>
<path d="M0 0 C1.47906892 -0.02689216 2.95827483 -0.04634621 4.4375 -0.0625 C5.26121094 -0.07410156 6.08492187 -0.08570313 6.93359375 -0.09765625 C9 0 9 0 10 1 C10.04092937 3.33297433 10.04241723 5.66705225 10 8 C7.03 8 4.06 8 1 8 C0 4 0 4 0 0 Z " fill="#C9E3BE" transform="translate(124,152)"/>
<path d="M0 0 C6.15234375 -0.09765625 6.15234375 -0.09765625 8 0 C9 1 9 1 9.0625 4.5625 C9.041875 5.696875 9.02125 6.83125 9 8 C6.03 8 3.06 8 0 8 C-0.92538169 4.29847322 -1.08174162 3.36541838 0 0 Z " fill="#C5E5C0" transform="translate(104,152)"/>
<path d="M0 0 C0.33 0 0.66 0 1 0 C1.33 2.64 1.66 5.28 2 8 C2.33 6.68 2.66 5.36 3 4 C3.66 4 4.32 4 5 4 C5.18451025 16.66970387 5.18451025 16.66970387 4 22 C3.01 22 2.02 22 1 22 C0.29223008 14.64424835 -0.14715692 7.3905476 0 0 Z " fill="#C9D2BB" transform="translate(158,130)"/>
<path d="M0 0 C1.23556641 0.01740234 1.23556641 0.01740234 2.49609375 0.03515625 C3.32238281 0.04417969 4.14867187 0.05320313 5 0.0625 C5.63808594 0.07410156 6.27617187 0.08570313 6.93359375 0.09765625 C6.93359375 0.75765625 6.93359375 1.41765625 6.93359375 2.09765625 C4.29359375 2.09765625 1.65359375 2.09765625 -1.06640625 2.09765625 C-1.06640625 2.75765625 -1.06640625 3.41765625 -1.06640625 4.09765625 C1.24359375 4.09765625 3.55359375 4.09765625 5.93359375 4.09765625 C6.31578142 5.75380282 6.64754477 7.42222649 6.93359375 9.09765625 C5.93359375 10.09765625 5.93359375 10.09765625 3.8671875 10.1953125 C3.04347656 10.18371094 2.21976563 10.17210937 1.37109375 10.16015625 C0.54480469 10.15113281 -0.28148437 10.14210937 -1.1328125 10.1328125 C-1.77089844 10.12121094 -2.40898437 10.10960937 -3.06640625 10.09765625 C-3.06640625 9.43765625 -3.06640625 8.77765625 -3.06640625 8.09765625 C-0.42640625 8.09765625 2.21359375 8.09765625 4.93359375 8.09765625 C4.93359375 7.43765625 4.93359375 6.77765625 4.93359375 6.09765625 C2.62359375 6.09765625 0.31359375 6.09765625 -2.06640625 6.09765625 C-2.44859392 4.44150968 -2.78035727 2.77308601 -3.06640625 1.09765625 C-2.06640625 0.09765625 -2.06640625 0.09765625 0 0 Z " fill="#E9F1C4" transform="translate(186.06640625,149.90234375)"/>
<path d="M0 0 C0.33 0 0.66 0 1 0 C1.09765625 6.15234375 1.09765625 6.15234375 1 8 C0 9 0 9 -3.69360352 9.11352539 C-5.33871292 9.11336624 -6.98382731 9.10766988 -8.62890625 9.09765625 C-9.92525246 9.09553383 -9.92525246 9.09553383 -11.24778748 9.09336853 C-14.01939292 9.08775239 -16.7909188 9.07519719 -19.5625 9.0625 C-21.4368478 9.05748708 -23.31119685 9.05292381 -25.18554688 9.04882812 C-29.79039544 9.03777772 -34.39518421 9.0205023 -39 9 C-39 8.34 -39 7.68 -39 7 C-37.91992676 7.00523682 -36.83985352 7.01047363 -35.72705078 7.01586914 C-31.72771022 7.03394108 -27.72837328 7.04544007 -23.72900391 7.05493164 C-21.99657586 7.05996682 -20.26415208 7.06679532 -18.53173828 7.07543945 C-16.04458567 7.08754065 -13.55748913 7.09323638 -11.0703125 7.09765625 C-9.90461227 7.10539818 -9.90461227 7.10539818 -8.71536255 7.11329651 C-4.72829094 7.20328052 -4.72829094 7.20328052 -1 6 C-0.34227572 2.97065509 -0.34227572 2.97065509 0 0 Z " fill="#68700E" transform="translate(239,163)"/>
<path d="M0 0 C0 2.97 0 5.94 0 9 C-0.66 8.34 -1.32 7.68 -2 7 C-2.99 7.495 -2.99 7.495 -4 8 C-4 7.34 -4 6.68 -4 6 C-10.27 6 -16.54 6 -23 6 C-23.33 6.66 -23.66 7.32 -24 8 C-24 7.01 -24 6.02 -24 5 C-16.74 5 -9.48 5 -2 5 C-2.33 4.01 -2.66 3.02 -3 2 C-6.3 1.67 -9.6 1.34 -13 1 C-13 0.67 -13 0.34 -13 0 C-11.58456585 -0.19658808 -10.16755969 -0.38187546 -8.75 -0.5625 C-7.96109375 -0.66691406 -7.1721875 -0.77132812 -6.359375 -0.87890625 C-4 -1 -4 -1 0 0 Z " fill="#4A7223" transform="translate(159,160)"/>
<path d="M0 0 C2.64 0 5.28 0 8 0 C8 2.66666667 8 5.33333333 8 8 C5.03 8 2.06 8 -1 8 C-1 4.88742431 -0.82638376 2.89234315 0 0 Z " fill="#C6E8BB" transform="translate(115,152)"/>
<path d="M0 0 C2.64 0 5.28 0 8 0 C8 2.66666667 8 5.33333333 8 8 C5.03 8 2.06 8 -1 8 C-1 4.88742431 -0.82638376 2.89234315 0 0 Z " fill="#CAE5B1" transform="translate(136,152)"/>
<path d="M0 0 C1.28418268 3.70682519 0.79339087 6.73100309 0.1875 10.5625 C0.01605469 11.69816406 -0.15539062 12.83382812 -0.33203125 14.00390625 C-1 17 -1 17 -3 20 C-2.41992188 20.18175781 -1.83984375 20.36351563 -1.2421875 20.55078125 C3.39147293 22.0418106 7.69762355 23.68333576 12 26 C8.03714015 27.32095328 6.64909563 26.27105135 2.875 24.625 C1.79992187 24.16351563 0.72484375 23.70203125 -0.3828125 23.2265625 C-3 22 -3 22 -4 21 C-3.52545762 13.76322869 -1.88043224 6.98953117 0 0 Z " fill="#E7E4D0" transform="translate(276,92)"/>
<path d="M0 0 C13.86 0 27.72 0 42 0 C42 0.33 42 0.66 42 1 C29.13 1.33 16.26 1.66 3 2 C2.67 4.31 2.34 6.62 2 9 C1.67 9 1.34 9 1 9 C0.67 6.03 0.34 3.06 0 0 Z " fill="#145F14" transform="translate(87,184)"/>
<path d="M0 0 C2.05078125 0.03255208 4.1015625 0.06510417 6.15234375 0.09765625 C6.71484375 2.03515625 6.71484375 2.03515625 7.15234375 4.09765625 C6.15234375 5.09765625 6.15234375 5.09765625 3.08984375 5.16015625 C2.12046875 5.13953125 1.15109375 5.11890625 0.15234375 5.09765625 C0.15234375 4.76765625 0.15234375 4.43765625 0.15234375 4.09765625 C1.80234375 4.09765625 3.45234375 4.09765625 5.15234375 4.09765625 C5.15234375 3.43765625 5.15234375 2.77765625 5.15234375 2.09765625 C3.17234375 2.09765625 1.19234375 2.09765625 -0.84765625 2.09765625 C-0.84765625 3.41765625 -0.84765625 4.73765625 -0.84765625 6.09765625 C1.46234375 6.09765625 3.77234375 6.09765625 6.15234375 6.09765625 C6.15234375 6.75765625 6.15234375 7.41765625 6.15234375 8.09765625 C0 8.1953125 0 8.1953125 -1.84765625 8.09765625 C-2.84765625 7.09765625 -2.84765625 7.09765625 -2.97265625 4.09765625 C-2.80810474 0.14841991 -2.80810474 0.14841991 0 0 Z " fill="#D6E9BF" transform="translate(147.84765625,151.90234375)"/>
<path d="M0 0 C-0.99 1.485 -0.99 1.485 -2 3 C-3.58357459 2.68872484 -5.16684993 2.37592711 -6.75 2.0625 C-7.63171875 1.88847656 -8.5134375 1.71445312 -9.421875 1.53515625 C-11.63235053 1.07631512 -13.81512068 0.56663926 -16 0 C-16 -0.66 -16 -1.32 -16 -2 C-10.57373151 -3.80875616 -5.06935297 -2.37625921 0 0 Z " fill="#F8F9FA" transform="translate(53,37)"/>
<path d="M0 0 C6.15234375 -0.09765625 6.15234375 -0.09765625 8 0 C9 1 9 1 9.0625 4.5625 C9.041875 5.696875 9.02125 6.83125 9 8 C6.03 8 3.06 8 0 8 C0 6.68 0 5.36 0 4 C0.66 4 1.32 4 2 4 C2 4.66 2 5.32 2 6 C3.65 6 5.3 6 7 6 C7 4.68 7 3.36 7 2 C4.69 2 2.38 2 0 2 C0 1.34 0 0.68 0 0 Z " fill="#E3EFC0" transform="translate(168,152)"/>
<path d="M0 0 C1.084021 0.00523682 2.16804199 0.01047363 3.28491211 0.01586914 C5.03964844 0.02070313 5.03964844 0.02070313 6.82983398 0.02563477 C8.67738281 0.03820312 8.67738281 0.03820312 10.56225586 0.05102539 C12.41560547 0.05779297 12.41560547 0.05779297 14.30639648 0.06469727 C17.37089703 0.07652931 20.43530307 0.09301366 23.49975586 0.11352539 C23.49975586 0.44352539 23.49975586 0.77352539 23.49975586 1.11352539 C22.3537793 1.16250977 21.20780273 1.21149414 20.02709961 1.26196289 C18.49713051 1.3370534 16.96718368 1.41259845 15.43725586 1.48852539 C14.30900391 1.53493164 14.30900391 1.53493164 13.15795898 1.58227539 C8.31868002 1.83366651 4.07076356 2.46106747 -0.50024414 4.11352539 C-0.83024414 4.77352539 -1.16024414 5.43352539 -1.50024414 6.11352539 C-2.16024414 6.11352539 -2.82024414 6.11352539 -3.50024414 6.11352539 C-3.54296514 4.44740634 -3.54088246 2.77969654 -3.50024414 1.11352539 C-2.50024414 0.11352539 -2.50024414 0.11352539 0 0 Z " fill="#7C812E" transform="translate(191.500244140625,139.886474609375)"/>
<path d="M0 0 C6.59491938 -0.1725187 12.90756772 0.47966321 19.4375 1.375 C20.44232422 1.50132813 21.44714844 1.62765625 22.48242188 1.7578125 C23.91231445 1.95117188 23.91231445 1.95117188 25.37109375 2.1484375 C26.23661865 2.26364746 27.10214355 2.37885742 27.99389648 2.49755859 C28.65591064 2.66336426 29.3179248 2.82916992 30 3 C30.33 3.66 30.66 4.32 31 5 C29.74445313 4.86722656 28.48890625 4.73445313 27.1953125 4.59765625 C26.38827881 4.51257813 25.58124512 4.4275 24.74975586 4.33984375 C22.99785066 4.15472941 21.2460599 3.96852886 19.49438477 3.78125 C14.97807694 3.30090868 10.46458671 2.867784 5.9375 2.5 C2 2 2 2 0 0 Z " fill="#4C701A" transform="translate(98,89)"/>
<path d="M0 0 C0.66 0 1.32 0 2 0 C3.03590199 5.05002222 3.10251672 9.87416389 3 15 C3.66 15 4.32 15 5 15 C5 18.96 5 22.92 5 27 C3.42292354 23.84584709 2.68972014 22.142667 2.1484375 18.84765625 C2.01953125 18.07099609 1.890625 17.29433594 1.7578125 16.49414062 C1.63148437 15.69169922 1.50515625 14.88925781 1.375 14.0625 C1.2409375 13.26392578 1.106875 12.46535156 0.96875 11.64257812 C0.33253801 7.72468081 -0.17706884 3.98404882 0 0 Z " fill="#1F6920" transform="translate(89,201)"/>
<path d="M0 0 C2.20857055 0.14219564 4.41684987 0.28891847 6.625 0.4375 C7.85476563 0.51871094 9.08453125 0.59992188 10.3515625 0.68359375 C13.61532388 0.96663944 16.77943859 1.41038953 20 2 C20 2.33 20 2.66 20 3 C10.595 3.495 10.595 3.495 1 4 C0.67 2.68 0.34 1.36 0 0 Z " fill="#F5F5F5" transform="translate(270,122)"/>
<path d="M0 0 C0.33 0 0.66 0 1 0 C0.59200675 8.02386726 -1.91036813 14.62364642 -5 22 C-5.33 22 -5.66 22 -6 22 C-5.59200675 13.97613274 -3.08963187 7.37635358 0 0 Z " fill="#7C8023" transform="translate(177,74)"/>
<path d="M0 0 C0.66 0 1.32 0 2 0 C1.61375277 8.38156489 -0.5255343 16.01265489 -3 24 C-3.66 23.67 -4.32 23.34 -5 23 C-4.53331927 19.3598903 -3.72369211 16.06924559 -2.5 12.625 C-1.02801432 8.39573384 -0.40486458 4.45351034 0 0 Z " fill="#7C7E1E" transform="translate(253,208)"/>
<path d="M0 0 C1.98 0 3.96 0 6 0 C6.38218767 1.65614657 6.71395102 3.32457024 7 5 C6 6 6 6 2.9375 6.0625 C1.4834375 6.0315625 1.4834375 6.0315625 0 6 C0 4.02 0 2.04 0 0 Z " fill="#2C702C" transform="translate(93,152)"/>
<path d="M0 0 C6.27 0 12.54 0 19 0 C19 0.99 19 1.98 19 3 C20.65 3 22.3 3 24 3 C24 3.33 24 3.66 24 4 C20.7 4 17.4 4 14 4 C14 3.34 14 2.68 14 2 C13.24074219 2.02320313 12.48148438 2.04640625 11.69921875 2.0703125 C10.70535156 2.08835938 9.71148437 2.10640625 8.6875 2.125 C7.20830078 2.15980469 7.20830078 2.15980469 5.69921875 2.1953125 C3 2 3 2 0 0 Z " fill="#617414" transform="translate(169,146)"/>
<path d="M0 0 C9.08548387 0.34677419 9.08548387 0.34677419 12.625 2.875 C14 5 14 5 14 8 C14.66 8.33 15.32 8.66 16 9 C15.01 10.485 15.01 10.485 14 12 C13.54625 11.113125 13.0925 10.22625 12.625 9.3125 C9.67163206 4.77466094 4.81592109 3.07709574 0 1 C0 0.67 0 0.34 0 0 Z " fill="#5C7B25" transform="translate(140,131)"/>
<path d="M0 0 C0.33 0.66 0.66 1.32 1 2 C3.31 2 5.62 2 8 2 C8 3.32 8 4.64 8 6 C6.35 6 4.7 6 3 6 C3 5.34 3 4.68 3 4 C2.34 4 1.68 4 1 4 C0.67 5.32 0.34 6.64 0 8 C-0.33 8 -0.66 8 -1 8 C-1.04241723 5.66705225 -1.04092937 3.33297433 -1 1 C-0.67 0.67 -0.34 0.34 0 0 Z " fill="#6B823D" transform="translate(167,152)"/>
<path d="M0 0 C2.68777802 -0.0544207 5.37443212 -0.09387266 8.0625 -0.125 C8.81466797 -0.14175781 9.56683594 -0.15851563 10.34179688 -0.17578125 C15.29327709 -0.21865121 19.30414451 0.41600625 24 2 C24 2.33 24 2.66 24 3 C7.1070615 2.03644647 7.1070615 2.03644647 0 1 C0 0.67 0 0.34 0 0 Z " fill="#B3C09B" transform="translate(120,91)"/>
<path d="M0 0 C0.99 0 1.98 0 3 0 C2.4140625 6.15234375 2.4140625 6.15234375 2 8 C1.01 8.495 1.01 8.495 0 9 C0 8.34 0 7.68 0 7 C-2.31 7 -4.62 7 -7 7 C-7 5.68 -7 4.36 -7 3 C-5.02 3 -3.04 3 -1 3 C-0.67 3.66 -0.34 4.32 0 5 C0 3.35 0 1.7 0 0 Z " fill="#6A8647" transform="translate(154,151)"/>
<path d="M0 0 C0.33 0 0.66 0 1 0 C0.85936865 2.29199177 0.71234057 4.58359186 0.5625 6.875 C0.48128906 8.15117187 0.40007812 9.42734375 0.31640625 10.7421875 C0 14 0 14 -1 16 C-1.66 16 -2.32 16 -3 16 C-3 12.04 -3 8.08 -3 4 C-2.34 4 -1.68 4 -1 4 C-0.67 2.68 -0.34 1.36 0 0 Z " fill="#968018" transform="translate(262,159)"/>
<path d="M0 0 C0 0.33 0 0.66 0 1 C-1.03640625 1.26554688 -2.0728125 1.53109375 -3.140625 1.8046875 C-4.51047756 2.16122447 -5.88026588 2.5180083 -7.25 2.875 C-7.93191406 3.04902344 -8.61382812 3.22304687 -9.31640625 3.40234375 C-12.74630957 4.30144462 -15.9129524 5.23369957 -19 7 C-18.67 5.35 -18.34 3.7 -18 2 C-11.88019467 0.59545452 -6.28260706 -0.23268915 0 0 Z " fill="#6A7817" transform="translate(191,127)"/>
<path d="M0 0 C0.33 0.66 0.66 1.32 1 2 C1.66 2.33 2.32 2.66 3 3 C2.52949219 3.60328125 2.05898438 4.2065625 1.57421875 4.828125 C0.95160156 5.62734375 0.32898438 6.4265625 -0.3125 7.25 C-0.92738281 8.03890625 -1.54226563 8.8278125 -2.17578125 9.640625 C-3.80379018 11.7462297 -5.40935863 13.86609343 -7 16 C-6.67 13.69 -6.34 11.38 -6 9 C-5.34 9 -4.68 9 -4 9 C-3.67 7.35 -3.34 5.7 -3 4 C-2.01 4 -1.02 4 0 4 C0 2.68 0 1.36 0 0 Z " fill="#A5871E" transform="translate(297,44)"/>
<path d="M0 0 C0.66 0 1.32 0 2 0 C2 0.66 2 1.32 2 2 C2.99 2 3.98 2 5 2 C5 2.66 5 3.32 5 4 C4.01 4 3.02 4 2 4 C2 5.32 2 6.64 2 8 C2.99 8 3.98 8 5 8 C5 8.66 5 9.32 5 10 C3.35 9.67 1.7 9.34 0 9 C-1.125 2.25 -1.125 2.25 0 0 Z " fill="#E4E8B2" transform="translate(195,150)"/>
<path d="M0 0 C3.5 0.125 3.5 0.125 4.5 1.125 C4.54080783 3.12458364 4.54254356 5.12545254 4.5 7.125 C4.17 7.125 3.84 7.125 3.5 7.125 C3.5 5.475 3.5 3.825 3.5 2.125 C1.52 2.125 -0.46 2.125 -2.5 2.125 C-2.5 4.105 -2.5 6.085 -2.5 8.125 C-3.16 8.125 -3.82 8.125 -4.5 8.125 C-4.54241723 5.79205225 -4.54092937 3.45797433 -4.5 1.125 C-3.5 0.125 -3.5 0.125 0 0 Z " fill="#DAD7A1" transform="translate(216.5,151.875)"/>
<path d="M0 0 C2.62506802 -0.02690844 5.24986173 -0.04679404 7.875 -0.0625 C8.62136719 -0.07087891 9.36773437 -0.07925781 10.13671875 -0.08789062 C15.7734375 -0.11328125 15.7734375 -0.11328125 18 1 C19.70363822 1.22622081 21.41328701 1.40888473 23.125 1.5625 C24.03507812 1.64628906 24.94515625 1.73007813 25.8828125 1.81640625 C26.58148438 1.87699219 27.28015625 1.93757813 28 2 C28 2.33 28 2.66 28 3 C26.20991533 3.22151549 24.41781838 3.42682213 22.625 3.625 C21.62726563 3.74101563 20.62953125 3.85703125 19.6015625 3.9765625 C18.74304688 3.98429687 17.88453125 3.99203125 17 4 C16.34 3.34 15.68 2.68 15 2 C12.43083343 1.69400937 9.95241616 1.48912913 7.375 1.375 C6.66859375 1.33632812 5.9621875 1.29765625 5.234375 1.2578125 C3.49001476 1.16352276 1.74504309 1.08067109 0 1 C0 0.67 0 0.34 0 0 Z " fill="#5C9353" transform="translate(52,84)"/>
<path d="M0 0 C6.88940671 0.43632909 13.35751464 1.08389845 20 3 C20 3.33 20 3.66 20 4 C16.04 4 12.08 4 8 4 C8 3.67 8 3.34 8 3 C5.36 2.67 2.72 2.34 0 2 C0 1.34 0 0.68 0 0 Z " fill="#AC9232" transform="translate(276,31)"/>
<path d="M0 0 C0.33 0 0.66 0 1 0 C1 2.97 1 5.94 1 9 C0.34 8.67 -0.32 8.34 -1 8 C-1 7.34 -1 6.68 -1 6 C-3.64 6 -6.28 6 -9 6 C-9 4.68 -9 3.36 -9 2 C-7.02 2 -5.04 2 -3 2 C-4.98 2.99 -4.98 2.99 -7 4 C-4.03 4.495 -4.03 4.495 -1 5 C-0.67 3.35 -0.34 1.7 0 0 Z " fill="#8C8634" transform="translate(231,152)"/>
<path d="M0 0 C0.33 0 0.66 0 1 0 C1.3690205 13.6332574 1.3690205 13.6332574 -1 20 C-1.66 20 -2.32 20 -3 20 C-2.22602467 13.29221378 -1.14231412 6.65425699 0 0 Z " fill="#CBCAA7" transform="translate(258,192)"/>
<path d="M0 0 C0.66 0 1.32 0 2 0 C2.125 3.375 2.125 3.375 2 7 C1.34 7.66 0.68 8.32 0 9 C-0.33 7.68 -0.66 6.36 -1 5 C-3.31 4.67 -5.62 4.34 -8 4 C-8 3.34 -8 2.68 -8 2 C-5.36 2 -2.72 2 0 2 C0 1.34 0 0.68 0 0 Z " fill="#6F7B29" transform="translate(193,150)"/>
<path d="M0 0 C0.33 0 0.66 0 1 0 C1.0270043 1.45823212 1.04639787 2.91660675 1.0625 4.375 C1.07410156 5.18710938 1.08570313 5.99921875 1.09765625 6.8359375 C1 9 1 9 0 11 C1.98 11.495 1.98 11.495 4 12 C3.67 12.99 3.34 13.98 3 15 C1.68 14.67 0.36 14.34 -1 14 C-1.08333357 9.1666528 -0.95261487 4.76307437 0 0 Z " fill="#E5DFC7" transform="translate(267,134)"/>
<path d="M0 0 C0.66 0.33 1.32 0.66 2 1 C0.1875 4 0.1875 4 -2 7 C-2.99 7 -3.98 7 -5 7 C-5.66 8.65 -6.32 10.3 -7 12 C-7.99 11.67 -8.98 11.34 -10 11 C-6.7 7.37 -3.4 3.74 0 0 Z " fill="#A48F31" transform="translate(196,48)"/>
<path d="M0 0 C0.33 0 0.66 0 1 0 C1.09765625 6.15234375 1.09765625 6.15234375 1 8 C0 9 0 9 -2.50390625 9.09765625 C-4.01791016 9.08025391 -4.01791016 9.08025391 -5.5625 9.0625 C-6.57441406 9.05347656 -7.58632812 9.04445312 -8.62890625 9.03515625 C-9.41136719 9.02355469 -10.19382813 9.01195312 -11 9 C-10.67 8.34 -10.34 7.68 -10 7 C-8.88625 7.020625 -7.7725 7.04125 -6.625 7.0625 C-3.16784079 7.26380718 -3.16784079 7.26380718 -1 6 C-0.34227572 2.97065509 -0.34227572 2.97065509 0 0 Z " fill="#7F7A15" transform="translate(239,163)"/>
<path d="M0 0 C0.66 0 1.32 0 2 0 C1.71617054 1.75128818 1.42260471 3.50100003 1.125 5.25 C0.96257812 6.22453125 0.80015625 7.1990625 0.6328125 8.203125 C0.05144152 10.77264117 -0.70840265 12.72071056 -2 15 C-2.3690205 4.44191344 -2.3690205 4.44191344 0 0 Z " fill="#A68820" transform="translate(275,89)"/>
<path d="M0 0 C5.19209404 -0.21192221 9.126739 0.4087311 14 2 C14 2.33 14 2.66 14 3 C9.1666528 3.08333357 4.76307437 2.95261487 0 2 C0 1.34 0 0.68 0 0 Z " fill="#347A37" transform="translate(110,277)"/>
<path d="M0 0 C0.9435441 2.53899138 1.16906025 3.60909275 0.07421875 6.140625 C-0.61220703 7.18476562 -0.61220703 7.18476562 -1.3125 8.25 C-1.76238281 8.95640625 -2.21226562 9.6628125 -2.67578125 10.390625 C-3.11277344 10.92171875 -3.54976562 11.4528125 -4 12 C-4.66 12 -5.32 12 -6 12 C-4.68139111 7.38486888 -2.78644563 3.90102388 0 0 Z " fill="#93882C" transform="translate(184,62)"/>
<path d="M0 0 C2.64 0 5.28 0 8 0 C8.5625 1.9375 8.5625 1.9375 9 4 C8 5 8 5 4.9375 5.0625 C3.968125 5.041875 2.99875 5.02125 2 5 C2 4.67 2 4.34 2 4 C3.65 4 5.3 4 7 4 C7 3.34 7 2.68 7 2 C4.69 1.67 2.38 1.34 0 1 C0 0.67 0 0.34 0 0 Z " fill="#C8DDAC" transform="translate(146,152)"/>
<path d="M0 0 C2.64 0.33 5.28 0.66 8 1 C6.68 1.33 5.36 1.66 4 2 C4 2.66 4 3.32 4 4 C5.98 4 7.96 4 10 4 C10 4.33 10 4.66 10 5 C9.05125 5.12375 8.1025 5.2475 7.125 5.375 C3.91332809 5.71687177 3.91332809 5.71687177 2 8 C1.34 5.36 0.68 2.72 0 0 Z " fill="#346C2C" transform="translate(100,150)"/>
<path d="M0 0 C1.98 0 3.96 0 6 0 C6 1.32 6 2.64 6 4 C4.02 4 2.04 4 0 4 C0 2.68 0 1.36 0 0 Z " fill="#737A1F" transform="translate(203,154)"/>
<path d="M0 0 C0.66 0 1.32 0 2 0 C2 1.32 2 2.64 2 4 C-0.97 4 -3.94 4 -7 4 C-7 3.34 -7 2.68 -7 2 C-4.69 2 -2.38 2 0 2 C0 1.34 0 0.68 0 0 Z " fill="#D3E9C3" transform="translate(142,156)"/>
<path d="M0 0 C0.66 0.33 1.32 0.66 2 1 C1.34 4.96 0.68 8.92 0 13 C-0.66 12.67 -1.32 12.34 -2 12 C-1.85962479 10.18706911 -1.71255111 8.3746557 -1.5625 6.5625 C-1.48128906 5.55316406 -1.40007812 4.54382813 -1.31640625 3.50390625 C-1 1 -1 1 0 0 Z " fill="#62761B" transform="translate(169,133)"/>
<path d="M0 0 C-0.33 0.99 -0.66 1.98 -1 3 C-5.95 3 -10.9 3 -16 3 C-16 2.67 -16 2.34 -16 2 C-15.15695313 1.93941406 -14.31390625 1.87882812 -13.4453125 1.81640625 C-12.34960938 1.73261719 -11.25390625 1.64882813 -10.125 1.5625 C-9.03445312 1.48128906 -7.94390625 1.40007812 -6.8203125 1.31640625 C-4.26398303 1.02961583 -2.50524575 0 0 0 Z " fill="#C8D8C1" transform="translate(222,288)"/>
<path d="M0 0 C3.3 0 6.6 0 10 0 C10 0.33 10 0.66 10 1 C8.2984375 1.433125 8.2984375 1.433125 6.5625 1.875 C5.386875 2.24625 4.21125 2.6175 3 3 C2.67 3.66 2.34 4.32 2 5 C1.34 5 0.68 5 0 5 C0 3.35 0 1.7 0 0 Z " fill="#6C7A11" transform="translate(188,141)"/>
<path d="M0 0 C4.8333472 -0.08333357 9.23692563 0.04738513 14 1 C14 1.33 14 1.66 14 2 C8.58264203 2.93402724 5.19548425 3.20808081 0 1 C0 0.67 0 0.34 0 0 Z " fill="#4A732A" transform="translate(98,89)"/>
<path d="M0 0 C0.556875 0.226875 1.11375 0.45375 1.6875 0.6875 C0.0375 2.0075 -1.6125 3.3275 -3.3125 4.6875 C-4.6325 4.0275 -5.9525 3.3675 -7.3125 2.6875 C-2.88173077 -0.38942308 -2.88173077 -0.38942308 0 0 Z " fill="#27722A" transform="translate(45.3125,87.3125)"/>
<path d="M0 0 C0.33 0 0.66 0 1 0 C0.88590407 1.45922693 0.75834456 2.91740598 0.625 4.375 C0.55539063 5.18710938 0.48578125 5.99921875 0.4140625 6.8359375 C0 9 0 9 -2 11 C-2.95465783 8.83032311 -3.14401212 7.43671207 -2.3984375 5.17578125 C-1.64129615 3.4315257 -0.82390802 1.71372869 0 0 Z " fill="#8D8831" transform="translate(177,74)"/>
<path d="M0 0 C-1.98 0.33 -3.96 0.66 -6 1 C-6 1.66 -6 2.32 -6 3 C-7.65 3.33 -9.3 3.66 -11 4 C-11.33 3.34 -11.66 2.68 -12 2 C-10.75579353 1.4654744 -9.50429064 0.94791389 -8.25 0.4375 C-7.55390625 0.14746094 -6.8578125 -0.14257812 -6.140625 -0.44140625 C-3.69987216 -1.07831803 -2.3596345 -0.80248831 0 0 Z " fill="#AF9232" transform="translate(235,31)"/>
<path d="M0 0 C0.33 0 0.66 0 1 0 C1 2.97 1 5.94 1 9 C0.01 9.33 -0.98 9.66 -2 10 C-1.54177532 6.53058454 -1.10868317 3.32604951 0 0 Z " fill="#CECFB0" transform="translate(251,226)"/>
<path d="M0 0 C0.33 0 0.66 0 1 0 C1.13277344 0.69867188 1.26554687 1.39734375 1.40234375 2.1171875 C1.57894531 3.02726563 1.75554687 3.93734375 1.9375 4.875 C2.11152344 5.77992188 2.28554688 6.68484375 2.46484375 7.6171875 C2.89963701 9.99956317 2.89963701 9.99956317 4 12 C2.68 12.33 1.36 12.66 0 13 C0 8.71 0 4.42 0 0 Z " fill="#DCD8C0" transform="translate(262,166)"/>
<path d="M0 0 C0.66 0 1.32 0 2 0 C2 0.66 2 1.32 2 2 C4.31 2.33 6.62 2.66 9 3 C9 3.33 9 3.66 9 4 C6.03 4 3.06 4 0 4 C0 2.68 0 1.36 0 0 Z " fill="#D9E4BB" transform="translate(168,156)"/>
<path d="M0 0 C0.33 1.32 0.66 2.64 1 4 C-0.98 4 -2.96 4 -5 4 C-5.33 3.01 -5.66 2.02 -6 1 C-4.02 0.67 -2.04 0.34 0 0 Z " fill="#7FAE77" transform="translate(110,154)"/>
<path d="M0 0 C0.66 0 1.32 0 2 0 C2.125 3.375 2.125 3.375 2 7 C1.34 7.66 0.68 8.32 0 9 C-0.84454356 5.62182575 -1.10844919 3.32534757 0 0 Z " fill="#347B34" transform="translate(21,120)"/>
<path d="M0 0 C1.08557659 3.24215827 0.94015194 5.02321809 -0.3125 8.1875 C-0.57675781 8.88230469 -0.84101563 9.57710937 -1.11328125 10.29296875 C-2 12 -2 12 -4 13 C-2.77443263 8.62297367 -1.46939453 4.30322683 0 0 Z " fill="#F6F0CB" transform="translate(283,73)"/>
<path d="M0 0 C0.66 0.33 1.32 0.66 2 1 C0.02 3.31 -1.96 5.62 -4 8 C-4.99 7.67 -5.98 7.34 -7 7 C-4.69 4.69 -2.38 2.38 0 0 Z " fill="#FFFBE3" transform="translate(307,39)"/>
<path d="M0 0 C-1.33333333 0.66666667 -2.66666667 1.33333333 -4 2 C-4.680625 2.391875 -5.36125 2.78375 -6.0625 3.1875 C-8 4 -8 4 -11 3 C-9.73581754 2.30034557 -8.46334598 1.61565237 -7.1875 0.9375 C-6.47980469 0.55464844 -5.77210938 0.17179687 -5.04296875 -0.22265625 C-3 -1 -3 -1 0 0 Z " fill="#AE9432" transform="translate(222,35)"/>
<path d="M0 0 C0.33 0.99 0.66 1.98 1 3 C-2.6441774 5.4294516 -4.71241272 5.16179575 -9 5 C-8.443125 4.731875 -7.88625 4.46375 -7.3125 4.1875 C-4.80287477 2.89877353 -2.40665764 1.47073522 0 0 Z " fill="#9C9033" transform="translate(255,178)"/>
<path d="M0 0 C1.32 0 2.64 0 4 0 C4.33 1.98 4.66 3.96 5 6 C4.34 6 3.68 6 3 6 C3 5.34 3 4.68 3 4 C2.01 4 1.02 4 0 4 C0 2.68 0 1.36 0 0 Z " fill="#7B8339" transform="translate(197,154)"/>
<path d="M0 0 C2.31 0 4.62 0 7 0 C7 0.99 7 1.98 7 3 C5.02 3 3.04 3 1 3 C0.67 2.01 0.34 1.02 0 0 Z " fill="#89B076" transform="translate(125,155)"/>
<path d="M0 0 C1.32 0.33 2.64 0.66 4 1 C4 3.31 4 5.62 4 8 C3.34 8 2.68 8 2 8 C2 6.02 2 4.04 2 2 C1.34 2 0.68 2 0 2 C0 1.34 0 0.68 0 0 Z " fill="#DAE8C2" transform="translate(162,152)"/>
<path d="M0 0 C1.11375 0.3403125 1.11375 0.3403125 2.25 0.6875 C0.93 2.0075 -0.39 3.3275 -1.75 4.6875 C-4.225 3.6975 -4.225 3.6975 -6.75 2.6875 C-4.29511132 0.41445492 -3.41240272 -0.38777304 0 0 Z " fill="#F3F3F3" transform="translate(305.75,124.3125)"/>
<path d="M0 0 C6.15234375 0.5859375 6.15234375 0.5859375 8 1 C8.33 1.66 8.66 2.32 9 3 C6.1875 3.6875 6.1875 3.6875 3 4 C1.125 2.625 1.125 2.625 0 1 C0 0.67 0 0.34 0 0 Z " fill="#E5E5E5" transform="translate(295,123)"/>
<path d="M0 0 C2.31 0 4.62 0 7 0 C7 0.99 7 1.98 7 3 C5.35 3 3.7 3 2 3 C2 2.34 2 1.68 2 1 C1.34 0.67 0.68 0.34 0 0 Z " fill="#9EAF6D" transform="translate(168,155)"/>
<path d="M0 0 C2.31 0 4.62 0 7 0 C7.66 1.65 8.32 3.3 9 5 C4.545 3.02 4.545 3.02 0 1 C0 0.67 0 0.34 0 0 Z " fill="#DDEED3" transform="translate(128,140)"/>
<path d="M0 0 C-0.6875 1.9375 -0.6875 1.9375 -2 4 C-4.625 4.75 -4.625 4.75 -7 5 C-2.25 0 -2.25 0 0 0 Z " fill="#A4871C" transform="translate(206,42)"/>
</svg>
